<svg version="1.1" xmlns="http://www.w3.org/2000/svg" xmlns:xlink="http://www.w3.org/1999/xlink" width="293" height="282.7393" viewBox="0,0,293,282.7393"><defs><radialGradient cx="325" cy="180" r="93" gradientUnits="userSpaceOnUse" id="color-1"><stop offset="0" stop-color="#eaff00"/><stop offset="1" stop-color="#ff6300"/></radialGradient><radialGradient cx="325" cy="180" r="146.5" gradientUnits="userSpaceOnUse" id="color-2"><stop offset="0" stop-color="#eaff00" stop-opacity="0"/><stop offset="1" stop-color="#eaff00" stop-opacity="0.74118"/></radialGradient></defs><g transform="translate(-178.5,-38.63035)"><g data-paper-data="{&quot;isPaintingLayer&quot;:true}" fill-rule="nonzero" stroke-width="0" stroke-linecap="butt" stroke-linejoin="miter" stroke-miterlimit="10" stroke-dasharray="" stroke-dashoffset="0" style="mix-blend-mode: normal"><path d="M418,180c0,49.99646 -41.63752,90.5266 -93,90.5266c-51.36248,0 -93,-40.53014 -93,-90.5266c0,-49.99646 41.63752,-90.5266 93,-90.5266c51.36248,0 93,40.53014 93,90.5266z" fill="url(#color-1)" stroke="#000000"/><path d="M471.5,180c0,78.0763 -65.59028,141.36965 -146.5,141.36965c-80.90972,0 -146.5,-63.29335 -146.5,-141.36965c0,-78.0763 65.59028,-141.36965 146.5,-141.36965c80.90972,0 146.5,63.29335 146.5,141.36965z" fill="url(#color-2)" stroke="none"/></g></g></svg>