<svg version="1.1" xmlns="http://www.w3.org/2000/svg" xmlns:xlink="http://www.w3.org/1999/xlink" width="250.43722" height="208.3234" viewBox="0,0,250.43722,208.3234"><g transform="translate(-199.78139,-75.8383)"><g data-paper-data="{&quot;isPaintingLayer&quot;:true}" fill-rule="evenodd" stroke="none" stroke-width="1" stroke-linecap="butt" stroke-linejoin="miter" stroke-miterlimit="10" stroke-dasharray="" stroke-dashoffset="0" style="mix-blend-mode: normal"><g><g><path d="M348.20251,184.7739c7.6569,11.7281 6.2306,35.2594 -4.6541,40.0709c-10.8848,4.8115 -23.7963,11.5777 -28.6006,13.7579c-4.7292,2.105 -5.4048,4.2852 -9.4584,24.7342c-1.051,5.1122 -7.807,12.7054 -7.9571,1.6539c0,-2.1802 -0.3754,-18.9453 1.8767,-24.5838c4.2037,-10.2996 8.7077,-9.2471 12.0857,-12.1039c4.2789,-3.5335 8.7078,-10.0741 3.0027,-21.1256c-10.8096,-21.0503 14.7132,-51.423 33.7051,-22.4036z" fill="#69b229"/><path d="M305.41431,267.2462c0.5255,1.4285 3.5282,3.6087 4.8043,3.9846c1.2762,0.3759 1.7266,-0.9022 3.4531,-0.0752c1.6515,0.827 1.4263,2.4809 0.3753,3.2327c-1.0509,0.7518 -1.3512,0.6015 -1.9517,0.4511c0,0 0,0.6766 -0.5255,1.3532c-0.6756,0.827 -1.6514,0.7518 -2.4021,0.1504c-0.7507,-0.6014 -1.126,-0.5263 -1.126,-0.5263c0,0 0,1.3533 -0.9008,1.8795c-1.2762,0.7518 -2.1019,0.1504 -2.9276,-1.278c-0.8258,-1.4284 -2.177,-1.9547 -4.5041,-2.481c-1.6514,-0.3759 -3.0777,-3.5334 -2.7024,-6.7662c0.5255,-4.6611 0.6006,-7.5931 3.4531,-8.1946c8.2574,-1.8043 4.0536,5.7137 4.9544,8.2698z" fill="#69b229"/><path d="M311.87011,274.4635c0,-0.2255 -0.1501,-0.5263 -0.3754,-0.827c-0.1501,-0.1503 -0.3002,-0.2255 -0.4504,-0.3759c-0.1501,-0.1503 -0.3753,-0.2255 -0.6005,-0.3007c-0.2252,0 -0.4504,-0.0752 -0.6756,-0.0752c-0.3003,0 -0.5255,0 -0.8257,0c-0.5255,-0.0752 -1.051,-0.3007 -1.5014,-0.5262c-0.4504,-0.3008 -0.8257,-0.5263 -1.126,-0.827c-0.3003,-0.3007 -0.4504,-0.5263 -0.6005,-0.7518c-0.0751,-0.1504 -0.1502,-0.3007 -0.1502,-0.3007c0,0 0.0751,0.0751 0.2252,0.2255c0.1502,0.1504 0.4504,0.3759 0.7507,0.6014c0.3003,0.2256 0.6756,0.3759 1.126,0.6015c0.4504,0.2255 0.9759,0.3759 1.4263,0.4511c0.2252,0.0751 0.4504,0.0751 0.7507,0.0751c0.3002,0 0.6005,0.0752 0.8257,0.1504c0.5255,0.1504 0.9008,0.5263 1.126,0.9022c0.1501,0.1503 0.1501,0.3759 0.2252,0.5262c0.0751,0.2256 0.0751,0.3007 0.0751,0.4511c0,0.2255 0,0.3759 0,0.3759c0,0 0,-0.1504 -0.2252,-0.3759z" fill="#519b3d"/><path d="M307.89151,275.5912c-0.075,-0.2255 -0.1501,-0.4511 -0.3002,-0.6766c-0.2252,-0.5263 -0.8258,-0.9774 -1.5765,-1.2781c-0.6756,-0.3007 -1.5013,-0.6014 -2.0268,-0.9021c-0.3002,-0.1504 -0.4504,-0.3008 -0.6005,-0.4511c-0.0751,-0.1504 -0.1501,-0.2256 -0.1501,-0.2256c0,0 0.3002,0.2256 0.9008,0.4511c0.5254,0.1504 1.3512,0.3759 2.1018,0.6766c0.2252,0.0752 0.4504,0.1504 0.6006,0.3008c0.2252,0.0751 0.3753,0.2255 0.5255,0.3759c0.3002,0.2255 0.5254,0.6014 0.6005,0.9021c0.2252,0.6015 0.0751,1.0525 0.0751,1.0525c0,0 0,-0.0751 -0.1502,-0.2255z" fill="#519b3d"/><path d="M306.69051,277.3955c-0.5255,-0.5262 -0.9008,-1.2029 0.075,-1.3532c1.5764,-0.3008 0.8258,2.8568 0.8258,2.8568c-0.1502,-0.9022 -0.4504,-1.0525 -0.9008,-1.5036z" fill="#a1af93"/><path d="M310.89421,276.2678c-0.6005,-0.4511 -1.126,-0.9773 -0.1501,-1.3532c1.5764,-0.5263 1.3512,2.7065 1.3512,2.7065c-0.3003,-0.827 -0.6005,-0.9022 -1.2011,-1.3533z" fill="#a1af93"/><path d="M314.12211,274.5387c-0.6756,-0.2256 -1.2761,-0.6015 -0.5255,-1.2029c1.2011,-1.0525 2.1019,2.105 2.1019,2.105c-0.5255,-0.6766 -0.8257,-0.6766 -1.5764,-0.9021z" fill="#a1af93"/><path d="M316.74941,219.9581c0.0751,-0.4511 0.1502,-1.1277 0.1502,-1.9547c0.075,-0.7518 0,-1.7291 -0.1502,-2.7064c-0.075,-0.4511 -0.075,-0.9774 -0.2252,-1.5036c-0.1501,-0.5263 -0.2252,-1.0526 -0.3753,-1.5788c-0.0751,-0.5263 -0.2252,-1.0525 -0.3753,-1.5788c-0.1502,-0.5263 -0.3003,-1.0525 -0.4504,-1.5036c-0.1502,-0.4511 -0.3003,-0.9022 -0.4504,-1.3532c-0.1502,-0.4511 -0.3003,-0.827 -0.4504,-1.2029c-0.3003,-0.7518 -0.6006,-1.3533 -0.7507,-1.8043c-0.2252,-0.4511 -0.3003,-0.6767 -0.3003,-0.6767c0,0 0.1501,0.3008 0.3754,0.6767c0.2252,0.3759 0.6005,0.9773 0.9008,1.7291c0.1501,0.3759 0.3002,0.7518 0.5254,1.2029c0.1502,0.4511 0.3754,0.9021 0.5255,1.3532c0.2252,0.5263 0.3753,0.9774 0.5255,1.5036c0.1501,0.5263 0.3002,1.0525 0.4504,1.5788c0.075,0.5263 0.2252,1.0525 0.3002,1.5788c0.1502,0.5262 0.1502,1.0525 0.2252,1.5788c0.0751,0.5262 0.0751,1.0525 0.0751,1.5036c0,0.5262 0,0.9773 -0.0751,1.3532c0,0.827 -0.1501,1.5036 -0.3002,1.9547c-0.0751,0.4511 -0.2252,0.6766 -0.2252,0.6766c0,0 0.075,-0.2255 0.075,-0.827z" fill="#519b3d"/></g><path d="M316.67441,237.9261c-0.5255,0.3007 -1.3512,0.6766 -2.252,1.2029c-0.4504,0.3007 -0.9759,0.5262 -1.4263,0.9021c-0.2252,0.2256 -0.5255,0.3759 -0.6756,0.6015c-0.1501,0.2255 -0.3753,0.5262 -0.5255,0.7518c-0.7507,1.0525 -1.2761,2.4057 -1.7265,3.6838c-0.4504,1.278 -0.8258,2.6313 -1.2011,3.9093c-0.3753,1.2781 -0.7507,2.4058 -0.9759,3.4583c-0.5254,2.0299 -0.9008,3.3831 -0.9008,3.3831c0,0 0.0751,-0.3759 0.1502,-0.9774c0.075,-0.6014 0.2252,-1.4284 0.4504,-2.4809c0.2252,-1.0525 0.5254,-2.2554 0.8257,-3.5334c0.3754,-1.2781 0.7507,-2.6313 1.2011,-3.9846c0.4504,-1.3532 1.0509,-2.6313 1.8016,-3.759c0.2252,-0.3007 0.3753,-0.6014 0.6005,-0.8269c0.2252,-0.2256 0.5255,-0.4511 0.7507,-0.6015c0.5255,-0.3007 1.0509,-0.6014 1.5013,-0.827c0.9008,-0.5262 1.7266,-0.8269 2.3271,-1.0525c0.6006,-0.2255 0.9008,-0.3007 0.9008,-0.3007c0,0 -0.3753,0.1504 -0.8257,0.4511z" fill="#519b3d"/></g><g><path d="M321.32851,80.1236c47.5175,-8.2698 59.7534,21.351 59.7534,21.351c-20.6435,24.1328 -3.378,71.4209 -3.378,71.4209c-22.6703,-28.7187 -67.185,-3.9845 -67.185,-3.9845c3.378,-32.7033 -27.0242,-19.9227 -27.0242,-19.9227c11.185,-31.4252 -11.4852,-31.8762 -18.6166,-29.0946c0,0 34.1555,-35.7856 56.4504,-39.7701z" fill="#a1c380"/><path d="M379.50551,178.4588c-2.7024,-11.5025 -11.0349,-16.6899 -13.8124,-33.7557c-2.5522,-15.2615 7.1314,-34.7331 7.1314,-34.7331c0,0 -13.3619,2.4057 -28,9.0967c-15.2386,6.9166 -36.1072,54.2047 -36.1072,54.2047c0,0 6.3056,-24.5086 16.8901,-45.1831c10.5844,-20.6744 48.1179,-25.5611 48.1179,-25.5611c0,0 -29.5764,-6.8414 -43.1635,-2.3306c-13.5872,4.5108 -49.4692,52.7763 -49.4692,52.7763c17.1904,-35.4097 35.5067,-51.6486 46.6166,-59.8432c11.185,-8.1946 47.3673,2.4058 47.3673,2.4058c-2.7024,-7.6684 -31.4531,-13.758 -48.9437,-12.7806c-17.4155,0.9773 -65.9088,41.4241 -65.9088,41.4241c0,0 40.9115,-45.8597 64.2573,-47.9648c29.6515,-2.6313 59.8284,13.1565 59.8284,13.1565c1.3513,-7.8939 -7.882,-9.7734 -7.882,-9.7734c7.5818,-0.9021 13.437,6.0896 15.0885,15.1112c1.6515,9.0215 -14.0376,26.2377 -17.1153,41.6496c-3.0778,15.4119 19.8177,40.2964 19.8177,40.2964c0.9008,6.2399 -12.9866,9.3975 -14.7132,1.8043z" fill="#69b229"/><path d="M390.24011,172.2189c-1.2011,-1.4284 -2.8526,-3.5334 -4.7293,-6.0896c-1.8766,-2.5561 -3.9785,-5.6385 -5.9302,-9.0967c-1.9518,-3.4583 -3.8285,-7.2925 -4.9545,-11.4274c-0.5254,-2.0298 -0.8257,-4.21 -0.6756,-6.3151c0.2252,-2.105 0.7507,-4.1349 1.2762,-6.0144c1.126,-3.8341 2.6273,-7.2172 4.0536,-10.0741c1.4263,-2.8568 2.7024,-5.1874 3.6783,-6.7662c0.9008,-1.5787 1.5013,-2.4809 1.5013,-2.4809c0,0 -2.252,3.6086 -4.9544,9.3223c-1.3512,2.8568 -2.7775,6.3151 -3.9035,10.0741c-0.5255,1.8795 -0.9759,3.9094 -1.2011,5.9392c-0.1501,2.0299 0.1502,4.1349 0.6756,6.1648c1.126,4.0597 2.9276,7.8938 4.8794,11.3521c1.8767,3.4583 3.9785,6.5407 5.7802,9.172c3.6782,5.1874 6.4557,8.4201 6.4557,8.4201c0,0 -0.7507,-0.7518 -1.9517,-2.1802z" fill="#519b3d"/><path d="M374.77621,102.3768c-1.0509,0.2256 -2.5522,0.4511 -4.2788,0.827c-1.7265,0.3759 -3.7533,0.827 -5.9303,1.3532c-2.1769,0.5263 -4.504,1.1277 -6.756,1.8795c-2.252,0.6767 -4.504,1.4285 -6.6059,2.2554c-2.0268,0.827 -3.9786,1.5788 -5.63,2.3306c-1.5764,0.7518 -3.0027,1.3532 -3.9035,1.8043c-0.9759,0.4511 -1.5014,0.7518 -1.5014,0.7518c0,0 0.5255,-0.3007 1.4263,-0.827c0.9008,-0.451 2.177,-1.2028 3.8284,-1.9546c1.6515,-0.827 3.5282,-1.654 5.6301,-2.481c2.0268,-0.827 4.3538,-1.5787 6.6059,-2.3306c2.252,-0.6766 4.5791,-1.278 6.756,-1.8043c2.1769,-0.5262 4.2037,-0.9021 6.0054,-1.2028c1.7265,-0.3008 3.2278,-0.4511 4.2788,-0.6015c1.0509,-0.0752 1.6515,-0.1504 1.6515,-0.2255c0,0.0752 -0.6006,0.1503 -1.5765,0.2255z" fill="#519b3d"/><path d="M375.45191,95.8362c-1.051,-0.3008 -2.5523,-0.7518 -4.429,-1.2029c-1.8016,-0.4511 -3.9785,-0.9774 -6.3056,-1.4284c-2.3271,-0.4511 -4.8794,-0.9022 -7.3566,-1.2781c-1.2761,-0.2255 -2.5523,-0.3759 -3.7533,-0.5263c-1.2762,-0.2255 -2.4773,-0.3007 -3.6783,-0.451c-1.126,-0.1504 -2.3271,-0.2256 -3.378,-0.3008c-1.1261,-0.1503 -2.1019,-0.1503 -3.0778,-0.2255c-0.9759,-0.0752 -1.8767,-0.0752 -2.6273,-0.1504c-0.8258,-0.0751 -1.5014,-0.0751 -2.0269,-0.0751c-1.126,-0.0752 -1.7265,-0.0752 -1.7265,-0.0752c0,0 0.6005,-0.0752 1.7265,-0.0752c0.6006,-0.0752 1.2762,-0.0752 2.0269,-0.0752c0.8257,0 1.6514,0.0752 2.6273,0.0752c0.9759,0.0752 1.9517,0.0752 3.0778,0.1504c1.126,0.0751 2.252,0.0751 3.453,0.2255c1.2011,0.0752 2.4022,0.2255 3.6783,0.3759c1.2011,0.1504 2.4772,0.3007 3.7534,0.5263c2.5522,0.3759 5.0295,0.8269 7.3565,1.3532c1.2011,0.2255 2.3271,0.5263 3.3781,0.7518c1.0509,0.3007 2.1018,0.5263 3.0026,0.827c1.8767,0.5262 3.3781,0.9773 4.429,1.3532c1.0509,0.3759 1.6515,0.6015 1.6515,0.6015c0,0 -0.6006,-0.2256 -1.8016,-0.3759z" fill="#519b3d"/><path d="M381.98271,88.4685c-1.4263,-0.6766 -3.4531,-1.5787 -6.0054,-2.5561c-1.2011,-0.5262 -2.6273,-1.0525 -4.0536,-1.5788c-1.4263,-0.5262 -3.0027,-0.9773 -4.5791,-1.5787c-1.5764,-0.4511 -3.2279,-1.0526 -4.9544,-1.5036c-1.7266,-0.5263 -3.4531,-1.0526 -5.1796,-1.4285c-0.9008,-0.2255 -1.7266,-0.451 -2.6274,-0.6766c-0.9008,-0.2255 -1.7265,-0.4511 -2.6273,-0.6014c-0.8258,-0.1504 -1.7266,-0.3759 -2.5523,-0.5263c-0.9008,-0.1503 -1.7265,-0.3007 -2.5523,-0.4511c-0.8257,-0.1503 -1.6515,-0.3007 -2.4772,-0.451c-0.7507,-0.0752 -1.5764,-0.2256 -2.3271,-0.3008c-0.7507,-0.0751 -1.5013,-0.2255 -2.252,-0.3007c-0.7507,-0.1503 -1.4263,-0.1503 -2.1019,-0.2255c-1.3512,-0.0752 -2.5523,-0.2256 -3.6783,-0.3007c-1.126,0 -2.0268,-0.0752 -2.8525,-0.0752c-1.5764,-0.0752 -2.4772,-0.0752 -2.4772,-0.0752c0,0 0.9008,0 2.4772,0c0.8257,0 1.7265,0 2.8525,0c1.051,0.0752 2.3271,0.1504 3.6783,0.2255c0.6756,0.0752 1.3512,0.0752 2.1019,0.1504c0.7507,0.0752 1.5013,0.1504 2.252,0.2255c0.8258,0.1504 1.5764,0.2256 2.4022,0.3008c0.8257,0.0751 1.6514,0.2255 2.4772,0.3759c0.8257,0.1503 1.7265,0.3007 2.5522,0.451c0.9008,0.1504 1.7266,0.3759 2.6274,0.5263c0.9008,0.1504 1.7265,0.3759 2.6273,0.5263c0.9008,0.2255 1.7266,0.451 2.6274,0.6766c1.7265,0.3759 3.4531,0.9021 5.1796,1.4284c1.6515,0.5263 3.303,1.0525 4.9544,1.5788c1.5764,0.5262 3.1528,1.0525 4.5791,1.6539c1.4263,0.6015 2.7775,1.1277 4.0536,1.654c1.2762,0.5263 2.4022,1.0525 3.3781,1.5036c0.9758,0.4511 1.8766,0.827 2.5522,1.2029c1.4263,0.6766 2.2521,1.1277 2.2521,1.1277c0,0 -0.8258,-0.4511 -2.3271,-0.9774z" fill="#519b3d"/><path d="M378.52961,176.2034c0,-0.3007 -0.0751,-0.7518 -0.2252,-1.3532c-0.1501,-0.6014 -0.3753,-1.2781 -0.6756,-2.0299c-0.3753,-0.7518 -0.7507,-1.5787 -1.2011,-2.4809c-0.4504,-0.9022 -0.9758,-1.8795 -1.5764,-2.8568c-0.6005,-0.9774 -1.2761,-2.0299 -1.9517,-3.0824c-1.3512,-2.1051 -2.6274,-4.586 -3.6783,-7.0669c-1.0509,-2.5561 -1.8767,-5.1123 -2.5523,-7.5932c-0.6005,-2.4809 -1.0509,-4.8115 -1.2761,-6.8414c-0.3003,-1.9546 -0.3003,-3.6838 -0.2252,-4.8866c0.0751,-0.6015 0.0751,-1.0526 0.1501,-1.3533c0.0751,-0.3007 0.0751,-0.4511 0.0751,-0.4511c0,0 -0.0751,0.1504 -0.0751,0.4511c0,0.3007 -0.0751,0.7518 -0.0751,1.3533c0,1.2028 0.0751,2.8568 0.3754,4.8866c0.3003,2.0299 0.7507,4.2853 1.4263,6.7662c0.6005,2.481 1.5013,5.0371 2.5522,7.518c1.051,2.481 2.252,4.9619 3.6033,7.0669c0.6756,1.0525 1.2761,2.1802 1.8766,3.1576c0.6006,1.0525 1.126,2.0298 1.5764,2.932c0.9008,1.8043 1.5014,3.4583 1.7266,4.586c0.1501,0.6014 0.2252,1.0525 0.2252,1.3532c0,0.3007 0,0.4511 0,0.4511c0,0 0,-0.1504 -0.0751,-0.5263z" fill="#519b3d"/><path d="M374.10071,108.9175c-0.5255,0.8269 -1.1261,1.9546 -1.6515,3.1575c-0.6006,1.2029 -1.126,2.4058 -1.5014,3.3079c-0.1501,0.4511 -0.3002,0.827 -0.4504,1.0525c-0.1501,0.2256 -0.2252,0.3759 -0.2252,0.3759c0,0 0,-0.1503 0.0751,-0.451c0.0751,-0.2256 0.1501,-0.6767 0.3003,-1.1277c0.2252,-0.9774 0.7507,-2.1803 1.2761,-3.3831c0.5255,-1.2029 1.2011,-2.3306 1.8016,-3.1576c0.3003,-0.3759 0.5255,-0.6766 0.7507,-0.9021c0.1501,-0.2256 0.3003,-0.3008 0.3003,-0.3008c0,0 -0.4504,0.6015 -0.6756,1.4285z" fill="#519b3d"/><path d="M374.77621,94.7836c-0.1501,-0.1503 -0.3002,-0.3759 -0.5254,-0.6014c-0.2252,-0.2255 -0.4504,-0.5263 -0.7507,-0.7518c-0.3003,-0.2255 -0.6005,-0.5263 -0.9759,-0.7518c-0.3002,-0.2255 -0.7506,-0.4511 -1.126,-0.7518c-0.3753,-0.2255 -0.8257,-0.5263 -1.2761,-0.7518c-0.4504,-0.2255 -0.9008,-0.4511 -1.3512,-0.6766c-0.4504,-0.2256 -0.9008,-0.4511 -1.3512,-0.6766c-0.4504,-0.2256 -0.9008,-0.3759 -1.3512,-0.6015c-0.9008,-0.3759 -1.7266,-0.6766 -2.4772,-0.9773c-1.4263,-0.6015 -2.4022,-0.9774 -2.4022,-0.9774c0,0 0.2252,0 0.6756,0.1504c0.4504,0.1504 1.051,0.3007 1.8016,0.5263c0.6756,0.3007 1.5764,0.5262 2.4772,0.9021c0.4504,0.2256 0.9759,0.3759 1.4263,0.6015c0.4504,0.2255 0.9759,0.451 1.4263,0.6766c0.4504,0.2255 0.9008,0.5262 1.3512,0.7518c0.4504,0.3007 0.9008,0.5262 1.2761,0.827c0.3754,0.2255 0.7507,0.5262 1.126,0.8269c0.3754,0.2256 0.6756,0.5263 0.9759,0.827c0.2252,0.3007 0.5255,0.5263 0.6756,0.827c0.2252,0.2255 0.3753,0.4511 0.4504,0.6766c0.2252,0.3759 0.2252,0.6766 0.2252,0.6766c0,0 -0.0751,-0.3007 -0.3003,-0.7518z" fill="#519b3d"/><path d="M384.53501,86.6642c0.1501,0.4511 0.2252,0.9774 0.2252,1.5788c0,0.6014 -0.0751,1.2781 -0.3754,1.8795c-0.075,0.0752 -0.1501,0.2255 -0.3002,0.3759c-0.0751,0.1504 -0.2252,0.3007 -0.3003,0.3759c-0.1501,0.1504 -0.3003,0.4511 -0.3754,0.6766c-0.1501,0.5263 -0.075,1.0525 0.0751,1.4284c0.1501,0.3759 0.3753,0.6767 0.6006,0.827c0.2252,0.2256 0.3753,0.2256 0.3753,0.2256c0,0 -0.2252,0.0751 -0.4504,-0.0752c-0.3003,-0.1504 -0.6005,-0.3759 -0.8257,-0.827c-0.2252,-0.4511 -0.3754,-1.0525 -0.2252,-1.654c0.075,-0.3007 0.1501,-0.6014 0.3753,-0.9021c0.0751,-0.1504 0.2252,-0.2256 0.3003,-0.3759c0.075,-0.0752 0.1501,-0.1504 0.2252,-0.3007c0.2252,-0.5263 0.3753,-1.1277 0.3753,-1.654c0,-0.5263 0,-1.0525 -0.0751,-1.5036c-0.075,-0.9022 -0.2252,-1.5036 -0.2252,-1.5036c0,0 0.3003,0.5263 0.6006,1.4284z" fill="#519b3d"/><path d="M358.26151,160.3405c-0.3753,-0.0752 -0.9008,-0.2256 -1.5764,-0.3759c-0.6756,-0.0752 -1.5013,-0.2256 -2.4772,-0.3759c-0.4504,-0.0752 -0.9759,-0.0752 -1.5014,-0.1504c-0.5254,-0.0752 -1.0509,-0.1503 -1.6514,-0.1503c-0.5255,0 -1.2011,-0.0752 -1.8016,-0.0752c-0.6006,0 -1.2762,0 -1.9518,0c-1.3512,-0.0752 -2.7024,0.0752 -4.2037,0.1503c-0.7507,0.0752 -1.5014,0.1504 -2.252,0.2256c-0.7507,0.1503 -1.5014,0.1503 -2.252,0.3007c-0.8258,0.1504 -1.5765,0.2255 -2.3271,0.3759l-1.126,0.2255l-1.126,0.2256c-1.5765,0.3007 -3.0778,0.6014 -4.5791,1.0525c-0.6756,0.2255 -1.4263,0.3759 -2.177,0.6014c-0.3002,0.0752 -0.6756,0.2256 -1.0509,0.3008c-0.3754,0.1503 -0.6756,0.2255 -1.051,0.3759c-1.4262,0.451 -2.7774,0.9021 -4.0536,1.3532c-1.2761,0.4511 -2.4021,0.9022 -3.5281,1.3532c-0.5255,0.2256 -1.051,0.3759 -1.5764,0.6015c-0.5255,0.2255 -0.9759,0.3759 -1.4263,0.6014c-0.8257,0.3759 -1.6515,0.6766 -2.252,0.9774c-1.2011,0.6014 -1.9518,0.9021 -1.9518,0.9021c0,0 0.7507,-0.3759 1.9518,-0.9773c0.6756,-0.3007 1.4263,-0.6015 2.252,-1.0525c0.3753,-0.2256 0.9008,-0.4511 1.3512,-0.6767c0.5255,-0.2255 1.0509,-0.451 1.5764,-0.6766c1.126,-0.4511 2.252,-0.9021 3.5282,-1.4284c1.2761,-0.4511 2.6273,-0.9773 4.0536,-1.4284c0.3753,-0.1504 0.6756,-0.2256 1.0509,-0.3759c0.3754,-0.0752 0.7507,-0.2256 1.126,-0.3007c0.7507,-0.1504 1.5014,-0.3759 2.252,-0.6015c1.5014,-0.4511 3.0778,-0.7518 4.5791,-1.1277l1.1261,-0.2255l1.201,-0.1504c0.7507,-0.1503 1.5764,-0.2255 2.3271,-0.3759c0.8257,-0.0752 1.5764,-0.1503 2.3271,-0.2255c0.7507,-0.0752 1.5013,-0.2256 2.252,-0.2256c1.5013,0 2.9276,-0.1503 4.2788,-0.0751c0.6756,0.0751 1.3512,0 1.9517,0.0751c0.6756,0.0752 1.2762,0.0752 1.8767,0.1504c1.2011,0.0752 2.252,0.2255 3.2279,0.3759c0.9008,0.1504 1.7266,0.3759 2.4021,0.5263c0.6006,0.2255 1.1261,0.3007 1.5014,0.451c0.3753,0.0752 0.5255,0.1504 0.5255,0.1504c0,0 -0.2252,-0.0752 -0.8258,-0.3007z" fill="#7d9950"/><path d="M345.72531,118.6908c-0.4504,0.1504 -1.0509,0.3759 -1.8016,0.827c-1.5013,0.827 -3.4531,2.4058 -5.555,4.5108c-1.0509,1.0525 -2.1769,2.2554 -3.2278,3.6086c-1.051,1.3533 -2.177,2.7817 -3.2279,4.2853c-1.126,1.5036 -2.177,3.0824 -3.2279,4.7363c-0.5255,0.827 -1.0509,1.654 -1.5764,2.481c-0.5255,0.8269 -1.0509,1.7291 -1.5764,2.5561c-1.051,1.6539 -2.0268,3.3831 -3.0027,5.1122c-0.9759,1.7292 -1.8767,3.3831 -2.7775,5.0371c-1.8016,3.3079 -3.378,6.3903 -4.8043,9.0215c-2.7024,5.2626 -4.5791,8.7961 -4.5791,8.7961c0,0 0.4504,-0.9022 1.2011,-2.481c0.7507,-1.5787 1.8016,-3.7589 3.1528,-6.4654c1.3512,-2.7065 2.9276,-5.7889 4.7292,-9.0968c0.9008,-1.6539 1.8017,-3.3079 2.7775,-5.037c0.9759,-1.654 1.9518,-3.3831 3.0027,-5.1123c0.5255,-0.9021 1.0509,-1.7291 1.5764,-2.5561c0.5255,-0.827 1.051,-1.6539 1.5764,-2.4809c1.051,-1.654 2.1019,-3.2328 3.2279,-4.7364c1.051,-1.5787 2.1769,-3.0071 3.303,-4.2852c1.126,-1.2781 2.252,-2.4809 3.3029,-3.5335c1.051,-1.0525 2.1019,-1.9546 3.0778,-2.7064c0.9758,-0.7518 1.8766,-1.3533 2.6273,-1.7292c0.8258,-0.451 1.4263,-0.6766 1.8767,-0.8269c0.4504,-0.1504 0.6756,-0.1504 0.6756,-0.1504c0,0 -0.2252,0.0752 -0.7507,0.2255z" fill="#519b3d"/><path d="M285.44651,127.7876c-0.1501,-0.3007 -0.3003,-0.6766 -0.5255,-1.0525c-0.2252,-0.3759 -0.4504,-0.827 -0.7507,-1.2781c-0.2252,-0.4511 -0.6756,-0.9021 -1.0509,-1.4284c-0.4504,-0.4511 -0.9008,-0.9773 -1.4263,-1.4284c-0.5254,-0.5263 -1.126,-0.9022 -1.7265,-1.2781c-0.3003,-0.2255 -0.6756,-0.3759 -0.9759,-0.5262c-0.3002,-0.1504 -0.6005,-0.3008 -0.9758,-0.4511l-1.051,-0.3759c-0.3753,-0.1504 -0.6756,-0.2256 -1.0509,-0.3007c-0.3754,-0.0752 -0.6756,-0.1504 -1.051,-0.2256l-0.5254,-0.0752c-0.1502,-0.0751 -0.3754,-0.0751 -0.5255,-0.0751c-0.7507,0 -1.3512,-0.1504 -2.0268,-0.1504c-0.6005,0 -1.2761,0 -1.8016,0c-0.3003,0 -0.6006,0 -0.8258,0c-0.3002,0 -0.5254,0.0752 -0.7506,0.0752c-0.4504,0.0752 -0.9008,0.1503 -1.2011,0.1503c-0.6756,0.0752 -1.0509,0.0752 -1.0509,0.0752c0,0 0.3753,-0.0752 1.0509,-0.2255c0.3753,-0.0752 0.7507,-0.1504 1.2011,-0.2256c0.2252,-0.0751 0.5254,-0.0751 0.7506,-0.1503c0.3003,-0.0752 0.5255,-0.0752 0.8258,-0.0752c0.5255,0 1.126,0 1.8016,-0.0752c0.6005,0 1.3512,0 2.0268,0.0752c0.1501,0.0752 0.3753,0.0752 0.5255,0.0752l0.5254,0.0752c0.3754,0.0751 0.7507,0.1503 1.1261,0.2255c0.3753,0.0752 0.7506,0.1504 1.126,0.3007l1.0509,0.3759c0.3753,0.1504 0.6756,0.3759 1.0509,0.5263c0.3003,0.1503 0.6756,0.3007 0.9759,0.5262c0.6006,0.4511 1.2011,0.827 1.7266,1.3533c0.6005,0.4511 0.9758,1.0525 1.4262,1.5036c0.3754,0.5262 0.7507,0.9773 1.051,1.5036c0.3002,0.4511 0.5254,0.9021 0.6756,1.3532c0.2252,0.4511 0.3753,0.827 0.4504,1.1277c0.1501,0.6015 0.2252,0.9774 0.2252,0.9774c0,0 -0.0751,-0.3759 -0.3003,-0.9022z" fill="#7d9950"/><path d="M309.31781,154.3261c-0.1501,-0.3007 -0.3753,-0.6766 -0.6756,-1.1277c-0.1501,-0.2255 -0.3003,-0.4511 -0.4504,-0.6766c-0.2252,-0.2256 -0.3753,-0.4511 -0.6005,-0.6767c-0.2252,-0.3007 -0.4504,-0.5262 -0.6756,-0.7518c-0.2252,-0.2255 -0.4504,-0.5262 -0.7507,-0.7518c-0.2252,-0.2255 -0.5255,-0.451 -0.8257,-0.6766c-0.3003,-0.2255 -0.6756,-0.4511 -0.9759,-0.6766c-0.2252,-0.0752 -0.3753,-0.2255 -0.5255,-0.3007l-0.5255,-0.3007c-0.3753,-0.1504 -0.7506,-0.3759 -1.126,-0.5263c-0.3753,-0.0752 -0.8257,-0.2255 -1.201,-0.3759l-0.6006,-0.2255c-0.1501,-0.0752 -0.3753,-0.0752 -0.6005,-0.1504c-0.8257,-0.1504 -1.6515,-0.3759 -2.4772,-0.3759c-0.9008,-0.0752 -1.6515,-0.1504 -2.4772,-0.0752c-0.4504,0.0752 -0.8258,0.0752 -1.2011,0.0752c-0.3753,0 -0.7507,0 -1.126,0.0752c-0.6756,0.1503 -1.4263,0.2255 -2.0268,0.3007c-0.6756,0.0752 -1.2011,0.1504 -1.7266,0.3007c-0.5254,0.1504 -0.9758,0.2256 -1.3512,0.3007c-0.6756,0.1504 -1.126,0.2256 -1.126,0.2256c0,0 0.3754,-0.1504 1.126,-0.3759c0.3003,-0.0752 0.7507,-0.2256 1.2762,-0.3759c0.5254,-0.1504 1.0509,-0.3759 1.7265,-0.4511c0.6005,-0.1504 1.2761,-0.2255 2.0268,-0.3759c0.7507,-0.0752 1.5014,-0.0752 2.3271,-0.1504c0.8257,-0.0751 1.6515,0 2.4772,0.0752c0.8257,0 1.7265,0.2256 2.5523,0.3759c0.1501,0.0752 0.3753,0.0752 0.6005,0.1504l0.6006,0.2255c0.3753,0.1504 0.8257,0.3007 1.201,0.4511c0.3754,0.2255 0.7507,0.3759 1.126,0.6014c0.1502,0.0752 0.3754,0.2256 0.5255,0.3008c0.1501,0.1503 0.3754,0.2255 0.5255,0.3759c0.3003,0.2255 0.6756,0.451 0.9759,0.6766c0.2252,0.2255 0.5254,0.5262 0.8257,0.7518c0.3003,0.2255 0.5255,0.5262 0.7507,0.7518c0.2252,0.2255 0.5254,0.4511 0.6756,0.7518c0.1501,0.2255 0.3753,0.5262 0.5254,0.7518c0.1502,0.3007 0.3003,0.5262 0.4504,0.7518c0.2252,0.4511 0.4504,0.827 0.6006,1.2029c0.3003,0.6766 0.3753,1.1277 0.3753,1.1277c0,0 -0.1501,-0.4511 -0.2252,-1.2029z" fill="#7d9950"/><path d="M336.04171,98.9937c-0.9008,0.1504 -2.177,0.4511 -3.6783,0.827c-0.7507,0.1504 -1.5764,0.4511 -2.4022,0.7518c-0.8257,0.3007 -1.6514,0.827 -2.4772,1.2781c-1.6514,1.0525 -3.3029,2.3305 -4.8793,3.6838c-1.5764,1.3532 -3.0778,2.7816 -4.504,4.1349c-1.3512,1.3532 -2.7024,2.6313 -3.8285,3.759c-2.252,2.1802 -3.7533,3.6838 -3.7533,3.6838c0,0 1.3512,-1.5788 3.5281,-3.8342c1.1261,-1.1277 2.3271,-2.481 3.7534,-3.8342c1.4263,-1.3532 2.9276,-2.8568 4.504,-4.2101c1.6515,-1.4284 3.303,-2.7064 5.0295,-3.6838c0.8257,-0.5262 1.6515,-0.9773 2.5523,-1.278c0.9008,-0.3007 1.7265,-0.5263 2.4772,-0.6766c1.5013,-0.3008 2.8525,-0.4511 3.7533,-0.6015c0.9008,-0.1503 1.4263,-0.1503 1.4263,-0.1503c0,0 -0.5255,0.0751 -1.5013,0.1503z" fill="#519b3d"/><path d="M261.72531,122.7506c1.051,-0.9022 2.5523,-2.1803 4.3539,-3.6087c1.8016,-1.4284 3.9786,-3.1575 6.2306,-4.9619c2.252,-1.8043 4.7292,-3.6838 7.2064,-5.5633c2.4772,-1.8795 5.0295,-3.6838 7.3566,-5.4129c2.327,-1.7292 4.5791,-3.2327 6.5308,-4.5108c0.9759,-0.6766 1.8767,-1.2781 2.7024,-1.7291c0.8257,-0.5263 1.5013,-0.9774 2.1019,-1.2781c1.2011,-0.6766 1.8767,-1.0525 1.8767,-1.0525c0,0 -0.6006,0.4511 -1.8016,1.1277c-0.5255,0.3759 -1.2011,0.827 -2.0269,1.3532c-0.8257,0.5263 -1.6514,1.1277 -2.6273,1.8043c-1.9518,1.3533 -4.1287,2.9321 -6.4558,4.6612c-2.3271,1.7291 -4.8043,3.6086 -7.2815,5.4881c-2.4772,1.8795 -4.8793,3.759 -7.2064,5.5633c-2.3271,1.8044 -4.429,3.4583 -6.3056,4.8867c-3.6783,2.8569 -6.1555,4.7364 -6.1555,4.7364c0,0 0.6005,-0.5263 1.5013,-1.5036z" fill="#519b3d"/></g><g><path d="M408.70661,196.2765c4.9544,7.142 4.8793,23.2305 -3.9035,34.282c-8.7829,11.0514 -1.7266,23.7568 1.7265,28.1172c4.3539,5.4882 6.9062,5.7137 7.5067,8.2698c0.6756,2.6313 -5.3298,6.8414 -14.1877,-5.4881c-7.5067,-10.45 -15.6139,-17.5921 -12.0107,-27.3655c3.9035,-10.6755 -2.252,-16.0133 -3.9035,-26.1626c-1.6514,-9.9989 16.2896,-23.7568 24.7721,-11.6529z" fill="#69b229"/><path d="M413.58591,265.5171c1.2011,0.9022 4.2788,2.7065 5.63,2.7817c1.3512,0.0751 1.5014,-1.2781 3.303,-0.9022c1.8016,0.4511 1.9517,2.105 1.126,3.0824c-0.8257,0.9021 -1.126,0.9021 -1.8016,0.8269c0,0 0.1501,0.6767 -0.2252,1.4285c-0.4504,0.9773 -1.4263,1.0525 -2.3271,0.6766c-0.8257,-0.4511 -1.2761,-0.2256 -1.2761,-0.2256c0,0 0.3002,1.2781 -0.4504,2.0299c-1.051,0.9773 -2.0268,0.6766 -3.1529,-0.5263c-1.126,-1.2028 -2.6273,-1.4284 -4.9544,-1.4284c-1.7265,0 -2.5523,-0.9773 -3.5281,-1.8795c-0.6756,-0.6014 -1.5014,-0.9773 -2.1019,-0.6014c-0.9008,0.6014 -2.0268,1.0525 -2.4772,0.0752c-0.8258,-1.7292 2.1019,-1.7292 2.1019,-2.8569c0,-1.7291 -3.3781,-4.8867 -0.4504,-5.4129c2.9276,-0.3759 8.4075,1.278 10.5844,2.932z" fill="#69b229"/><path d="M400.29901,271.757c0,0 1.2011,-2.105 1.7266,-1.2029c0.3753,0.5263 -0.0751,0.7518 -0.6006,0.7518c-0.3753,0 -0.6005,0 -1.126,0.4511z" fill="#a1af93"/><path d="M388.06311,232.3628c0.0751,-0.3007 0.1501,-0.5263 0.2252,-0.9022c0.0751,-0.3007 0.1501,-0.6766 0.2252,-1.1277c0.0751,-0.3759 0.1501,-0.827 0.1501,-1.3532c0,-0.4511 0,-0.9774 0,-1.5036c0,-0.5263 -0.075,-1.1277 -0.075,-1.654c-0.0751,-0.5262 -0.1502,-1.1277 -0.2252,-1.6539c-0.0751,-0.5263 -0.1502,-1.1277 -0.3003,-1.654c-0.0751,-0.5263 -0.2252,-1.0525 -0.3753,-1.5788c-0.1502,-0.5262 -0.3003,-1.0525 -0.4504,-1.5036c-0.1502,-0.4511 -0.3003,-0.9021 -0.4504,-1.278c-0.2252,-0.827 -0.6006,-1.5036 -0.7507,-1.9547c-0.2252,-0.4511 -0.3003,-0.7518 -0.3003,-0.7518c0,0 0.1501,0.2255 0.3754,0.6766c0.1501,0.2255 0.3002,0.5263 0.4504,0.827c0.2252,0.3007 0.3753,0.6766 0.5254,1.0525c0.1502,0.3759 0.3003,0.827 0.5255,1.2781c0.1501,0.5262 0.3753,0.9773 0.5255,1.5036c0.1501,0.451 0.3002,1.0525 0.4504,1.5787c0.1501,0.6015 0.2252,1.1277 0.3753,1.7292c0.1501,0.6014 0.1501,1.1277 0.2252,1.7291c0.0751,0.5263 0.0751,1.1277 0.0751,1.654c0,0.5262 0,1.0525 -0.0751,1.5788c-0.0751,0.451 -0.1501,0.9021 -0.2252,1.3532c-0.2252,0.9022 -0.4504,1.5788 -0.6005,2.0299c-0.1502,0.5262 -0.3003,0.7518 -0.3003,0.7518c0,0 0.0751,-0.3008 0,-0.827z" fill="#519b3d"/><path d="M405.17841,256.7962c-0.2252,-0.2255 -0.4504,-0.6014 -0.7507,-0.9773c-0.2252,-0.3759 -0.5254,-0.827 -0.8257,-1.3533c-0.3003,-0.451 -0.6006,-1.0525 -0.9008,-1.6539c-0.3003,-0.6015 -0.5255,-1.2781 -0.8258,-1.9547c-0.2251,-0.6766 -0.4504,-1.4284 -0.6755,-2.1802c-0.2252,-0.7518 -0.4504,-1.5788 -0.5255,-2.3306l-0.1501,-1.2029c0,-0.451 -0.0751,-0.8269 -0.0751,-1.2028c-0.0751,-0.7518 0,-1.5036 0,-2.2555c0,-0.7518 0.2252,-1.4284 0.3003,-2.105c0,-0.3759 0.075,-0.6766 0.1501,-0.9773c0.0751,-0.3008 0.1501,-0.6015 0.2252,-0.9022c0.1501,-0.5263 0.2252,-1.0525 0.4504,-1.5036c0.2252,-0.4511 0.3753,-0.827 0.5255,-1.1277c0.3002,-0.6014 0.4504,-0.9773 0.4504,-0.9773c0,0 -0.1502,0.3007 -0.3754,0.9773c-0.1501,0.3007 -0.3003,0.6766 -0.4504,1.1277c-0.1501,0.3759 -0.2252,0.9773 -0.3753,1.5036c-0.0751,0.3007 -0.1502,0.6014 -0.2252,0.9022c-0.0751,0.3007 -0.0751,0.6766 -0.1502,0.9773c-0.075,0.6766 -0.2252,1.3532 -0.2252,2.105c0,0.7519 -0.075,1.5037 0,2.2555c0,0.3759 0.0751,0.7518 0.0751,1.1277l0.1501,1.1277c0.0751,0.7518 0.3003,1.5036 0.4504,2.2554c0.2252,0.6766 0.4504,1.4284 0.6756,2.105c0.2252,0.6766 0.4504,1.3532 0.7507,1.9547c0.3003,0.6766 0.5255,1.2029 0.8258,1.7291c0.2252,0.5263 0.5254,0.9774 0.7506,1.4284c0.3003,0.3759 0.4504,0.7518 0.6756,1.0525c0.3754,0.6015 0.6006,0.9022 0.6006,0.9022c0,0 -0.3003,-0.3007 -0.5255,-0.827z" fill="#519b3d"/><path d="M403.07651,268.7498c0.0751,-0.1503 0.2252,-0.3759 0.2252,-0.6014c0.0751,-0.5263 -0.2252,-1.2781 -0.6756,-2.0299c-0.4504,-0.8269 -1.0509,-1.6539 -1.7265,-2.6313c-0.6006,-0.9773 -1.3512,-1.9546 -2.1019,-2.932c-1.5013,-2.0298 -2.9276,-3.9845 -4.0536,-5.4881c-1.051,-1.5036 -1.8016,-2.4809 -1.8016,-2.4809c0,0 0.8257,0.9021 2.0268,2.3305c0.6005,0.7518 1.2761,1.5788 2.0268,2.481c0.6756,0.9021 1.4263,1.8795 2.1769,2.8568c0.7507,1.0525 1.4263,2.0299 2.1019,3.0072c0.6006,0.9773 1.2011,1.8795 1.6515,2.7065c0.4504,0.827 0.6756,1.6539 0.5255,2.1802c-0.0751,0.3007 -0.2252,0.5263 -0.3003,0.6014c-0.0751,0.1504 -0.1501,0.1504 -0.1501,0.1504c0,0 0.075,-0.0752 0.075,-0.1504z" fill="#519b3d"/><path d="M421.61811,271.1556c-0.1502,-0.1504 -0.3003,-0.4511 -0.6006,-0.6766c-0.1501,-0.1504 -0.3753,-0.2256 -0.5254,-0.3008c-0.1502,-0.0751 -0.3754,-0.1503 -0.6006,-0.1503c-0.2252,0 -0.4504,0 -0.6756,0.0752c-0.2252,0.0751 -0.4504,0.1503 -0.7506,0.1503c-0.5255,0.0752 -1.051,0 -1.5765,-0.1503c-0.4504,-0.1504 -0.9008,-0.3008 -1.2761,-0.5263c-0.3003,-0.2255 -0.6005,-0.4511 -0.7507,-0.6014c-0.1501,-0.2256 -0.2252,-0.3008 -0.2252,-0.3008c0,0 0.0751,0.0752 0.3003,0.2256c0.1501,0.0752 0.4504,0.2255 0.8257,0.3759c0.3754,0.1503 0.8258,0.3007 1.2762,0.3759c0.4504,0.0752 0.9759,0.1503 1.4263,0.0752c0.2252,0 0.4504,-0.0752 0.7506,-0.1504c0.3003,0 0.5255,0 0.8258,0c0.5254,0 0.9758,0.3007 1.2761,0.6015c0.1501,0.1503 0.2252,0.3007 0.3003,0.451c0.075,0.1504 0.1501,0.3008 0.1501,0.3759c0.0751,0.2256 0.0751,0.3759 0.0751,0.3759c0,0 0,-0.1503 -0.2252,-0.2255z" fill="#519b3d"/><path d="M417.93981,273.0351c-0.0751,-0.1504 -0.1501,-0.3759 -0.3753,-0.6015c-0.4504,-0.451 -1.1261,-0.8269 -1.8767,-0.9021c-0.7507,-0.0752 -1.5764,-0.1504 -2.177,-0.3759c-0.3002,-0.0752 -0.5254,-0.2256 -0.6756,-0.3007c-0.1501,-0.0752 -0.2252,-0.1504 -0.2252,-0.1504c0,0 0.3754,0.1504 0.9759,0.2255c0.5255,0.0752 1.3512,0.0752 2.1769,0.2256c0.1502,0.0752 0.3754,0.0752 0.6006,0.1503c0.2252,0 0.4504,0.1504 0.6005,0.2256c0.3754,0.2255 0.6756,0.4511 0.8258,0.7518c0.3002,0.5262 0.3002,0.9773 0.3002,0.9773c0,0 0,-0.0752 -0.1501,-0.2255z" fill="#519b3d"/><path d="M417.18911,274.9898c-0.6756,-0.3759 -1.126,-0.9022 -0.2252,-1.2781c1.5014,-0.6014 1.4263,2.6313 1.4263,2.6313c-0.3753,-0.827 -0.6756,-0.9022 -1.2011,-1.3532z" fill="#a1af93"/><path d="M421.09261,273.0351c-0.7507,-0.3007 -1.2761,-0.7518 -0.4504,-1.2781c1.3512,-0.9021 1.8767,2.3306 1.8767,2.3306c-0.5255,-0.7518 -0.8258,-0.7518 -1.4263,-1.0525z" fill="#a1af93"/><path d="M423.79501,270.6293c-0.7506,0 -1.4262,-0.2255 -0.8257,-1.0525c0.9759,-1.278 2.5523,1.5788 2.5523,1.5788c-0.7507,-0.5263 -1.051,-0.4511 -1.7266,-0.5263z" fill="#a1af93"/></g><g><g><path d="M419.51621,207.0272c-18.2413,23.6064 -26.1233,27.591 -48.9437,28.0421c-20.5684,0.451 -31.378,-26.6889 -51.7962,-22.1781c-20.4183,4.5108 -36.7078,3.0072 -37.8338,-12.1791c-1.4263,-18.6446 14.638,-33.6054 33.1796,-40.8227c18.5415,-7.2173 46.992,-4.3604 59.378,6.2399c12.311,10.6004 15.9142,8.2698 27.0241,11.5777c10.7346,3.1576 25.9732,20.2986 18.992,29.3202z" fill="#7cbf2e"/><path d="M367.04441,222.2887c18.0911,6.1647 40.1608,-13.6827 50.6702,-30.523c3.5281,5.4129 4.9544,11.2018 1.7265,15.4118c-18.2413,23.5313 -26.1233,27.591 -48.9437,28.0421c-20.5683,0.3759 -31.453,-26.9895 -51.7962,-22.178c-17.6408,4.1349 -23.5711,2.1802 -30.1019,0.0751c26.874,-20.8248 57.9517,2.1051 78.445,9.172z" fill="#b4d189"/><path d="M409.15701,219.2063c-0.3754,0.4511 -0.9008,1.1277 -1.6515,1.8795c-1.4263,1.5036 -3.6032,3.6838 -6.6059,5.9392c-1.5014,1.1277 -3.1528,2.2554 -5.0295,3.2328c-1.8767,0.9773 -3.9786,1.8795 -6.1555,2.5561c-2.177,0.6766 -4.504,1.278 -6.9062,1.6539c-2.4021,0.3759 -4.8793,0.6015 -7.3565,0.7518c-2.4773,0.1504 -4.9545,0.1504 -7.3566,-0.0751c-2.4022,-0.2256 -4.8043,-0.827 -6.9812,-1.5788c-2.177,-0.7518 -4.2038,-1.8043 -6.0054,-2.932c-1.8016,-1.1277 -3.378,-2.2554 -4.8794,-3.3831c-2.9276,-2.2554 -5.3297,-4.2101 -6.9812,-5.5633c-1.6515,-1.3533 -2.6273,-2.1051 -2.6273,-2.1051c0,0 0.9758,0.7518 2.7024,2.0299c1.7265,1.3532 4.2037,3.2327 7.1313,5.4129c1.5014,1.0526 3.1529,2.1803 4.9545,3.3079c1.8016,1.0526 3.7533,2.1051 5.9302,2.8569c2.177,0.7518 4.5041,1.278 6.9062,1.5036c2.4022,0.2255 4.8043,0.2255 7.2815,0.0752c2.4772,-0.1504 4.8794,-0.3759 7.2815,-0.7518c2.4022,-0.3759 4.7292,-0.9022 6.9062,-1.5788c2.252,-0.6766 4.2788,-1.5036 6.1555,-2.481c1.8767,-0.9773 3.5281,-2.105 5.0295,-3.1575c3.0027,-2.1802 5.2547,-4.2853 6.756,-5.7889c0.7507,-0.7518 1.3512,-1.3532 1.7265,-1.8043c0.3754,-0.4511 0.6006,-0.6766 0.6006,-0.6766c0,0 -0.2252,0.2255 -0.8258,0.6766z" fill="#7d9950"/></g><path d="M359.83791,159.1376c-2.252,-0.7518 -5.5549,-1.5788 -9.6086,-2.2554c-4.0536,-0.6766 -8.7828,-1.0525 -13.8874,-0.9022c-5.1045,0.1504 -10.5094,0.827 -15.7641,2.1803c-2.6273,0.6014 -5.2546,1.4284 -7.7319,2.4057c-2.4772,0.9774 -4.8793,2.1051 -7.1313,3.3079c-4.504,2.481 -8.3325,5.2626 -11.4102,7.9691c-3.0027,2.7065 -5.3298,5.2626 -6.756,7.1421c-1.5014,1.8795 -2.177,3.0823 -2.177,3.0823c0,0 0.6756,-1.2028 2.1019,-3.1575c1.4263,-1.8795 3.6783,-4.5108 6.681,-7.2925c3.0777,-2.7816 6.9061,-5.6384 11.4102,-8.1194c2.252,-1.2029 4.6541,-2.3306 7.1313,-3.3079c2.4772,-0.9773 5.1046,-1.8043 7.7319,-2.4809c5.3298,-1.2781 10.8097,-1.9547 15.9142,-2.1051c5.1797,-0.1503 9.9089,0.3759 13.9625,1.0526c4.0536,0.6766 7.3566,1.6539 9.6086,2.4057c2.3271,0.7518 3.5281,1.3533 3.5281,1.3533c0,0 -1.2761,-0.5263 -3.6032,-1.2781z" fill="#519b3d"/></g><g><g><path d="M315.24811,191.8408c-0.5255,11.0515 -0.5255,15.863 -20.118,25.7867c-14.8632,7.518 -16.5898,29.6961 -56.9008,33.7558c-40.311,4.0597 -38.4343,-17.5169 -38.4343,-17.5169c0.9008,11.8784 19.9678,18.3439 41.2869,8.7208c21.4691,-9.623 42.9383,-64.1284 54.7238,-69.0902c13.0617,-5.4882 20.118,6.5406 19.4424,18.3438z" fill="#7cbf2e"/><path d="M310.06851,206.0498l7.807,5.413c-2.7775,2.0298 -14.0376,4.7363 -18.9169,7.1421c-14.8633,7.518 -20.4183,28.7939 -60.7293,32.7784c-4.8793,0.5262 -9.2332,0.6014 -12.9115,0.4511c14.2627,-2.0299 33.63,-6.9166 44.2145,-18.795c18.0161,-20.2234 40.5362,-26.9896 40.5362,-26.9896z" fill="#b4d189"/></g><path d="M213.60731,246.2711c0.6756,0.1503 1.5014,0.3007 2.4773,0.3759c0.9758,0.0751 2.1018,0.1503 3.3029,0.2255c0.6006,0 1.2011,0 1.8767,0c0.6756,0 1.3512,0 2.0268,-0.0752c1.3512,-0.1503 2.7775,-0.2255 4.2788,-0.4511c1.4263,-0.1503 3.0027,-0.451 4.504,-0.8269c1.5014,-0.3759 3.0778,-0.827 4.5791,-1.3533c1.5014,-0.5262 2.9276,-1.1277 4.3539,-1.8795c1.4263,-0.6766 2.7775,-1.5036 3.9786,-2.3306c1.2761,-0.8269 2.4021,-1.7291 3.4531,-2.6313c0.5254,-0.451 1.0509,-0.9021 1.5013,-1.3532c0.4504,-0.4511 0.9008,-0.827 1.3512,-1.2781c0.8257,-0.8269 1.5764,-1.5787 2.252,-2.3305c0.6756,-0.6767 1.2762,-1.3533 1.7266,-1.8795c0.9008,-1.0526 1.4262,-1.654 1.4262,-1.654c0,0 -0.4504,0.6014 -1.3512,1.7291c-0.4504,0.5263 -0.9759,1.2029 -1.6515,1.9547c-0.3753,0.3759 -0.6756,0.827 -1.0509,1.2029c-0.3753,0.4511 -0.7507,0.827 -1.2011,1.2781c-0.4504,0.451 -0.9008,0.9021 -1.3512,1.3532c-0.5254,0.4511 -0.9758,0.9022 -1.5013,1.3532c-1.051,0.9022 -2.177,1.8795 -3.4531,2.7065c-1.2011,0.9022 -2.5523,1.654 -3.9785,2.4058c-1.4263,0.6766 -2.9277,1.3532 -4.429,1.8795c-1.5764,0.6014 -3.0777,0.9773 -4.6542,1.3532c-1.5764,0.3759 -3.0777,0.6015 -4.579,0.827c-1.5014,0.2255 -3.0027,0.3007 -4.3539,0.3759c-0.6756,0 -1.3512,0 -2.0268,0c-0.6756,0 -1.2762,-0.0752 -1.8767,-0.0752c-1.2011,-0.0752 -2.3271,-0.1503 -3.303,-0.3007c-0.9758,-0.1504 -1.8016,-0.3007 -2.4772,-0.4511c-1.4263,-0.3007 -2.1769,-0.5262 -2.1769,-0.5262c0,0 0.8257,0.2255 2.327,0.3759z" fill="#519b3d"/><path d="M278.99071,235.8962c-0.6005,0.5263 -1.2761,1.1277 -2.1018,1.7292c-0.4504,0.3007 -0.9008,0.6014 -1.3513,0.9773c-0.4504,0.3007 -0.9758,0.6766 -1.5013,1.0525c-0.5255,0.3759 -1.126,0.6767 -1.7265,1.0525c-0.6006,0.3759 -1.2011,0.7518 -1.8767,1.1277c-1.2762,0.6767 -2.6274,1.5036 -4.1287,2.1803c-0.7507,0.3759 -1.5013,0.7518 -2.252,1.0525c-0.7507,0.3007 -1.5764,0.6766 -2.3271,0.9773c-0.8257,0.3008 -1.5764,0.6015 -2.4021,0.9022c-0.7507,0.3007 -1.5765,0.6014 -2.4022,0.9022c-1.6514,0.5262 -3.3029,0.9773 -4.9544,1.4284c-1.6515,0.3759 -3.303,0.7518 -4.8794,1.1277c-1.5764,0.3007 -3.1528,0.5262 -4.5791,0.7518c-0.6756,0.0751 -1.4262,0.1503 -2.1018,0.2255c-0.7507,0 -1.3512,0.0752 -2.0268,0.1504c-1.2762,0.0751 -2.4773,0.2255 -3.5282,0.2255c-1.0509,0.0752 -1.9517,0.0752 -2.7024,0.0752c-1.5013,0.0752 -2.3271,0.0752 -2.3271,0.0752c0,0 0.8258,-0.0752 2.3271,-0.1504c0.7507,-0.0752 1.6515,-0.0752 2.7024,-0.1504c1.0509,0 2.252,-0.1503 3.5282,-0.3007c0.6756,-0.0752 1.3512,-0.1503 2.0268,-0.2255c0.6756,-0.0752 1.3512,-0.1504 2.1018,-0.3007c1.5014,-0.2256 3.0027,-0.4511 4.5791,-0.7518c1.5765,-0.3759 3.1528,-0.7518 4.8043,-1.1277c1.5764,-0.5263 3.2279,-0.9774 4.8794,-1.5036c0.8257,-0.2256 1.5764,-0.5263 2.4021,-0.827c0.8258,-0.3007 1.6515,-0.5263 2.4022,-0.9022c0.8257,-0.3007 1.5764,-0.6766 2.3271,-0.9773c0.7506,-0.3007 1.4262,-0.7518 2.1769,-1.0525c1.5013,-0.6767 2.8525,-1.4285 4.1287,-2.1051c0.6756,-0.3007 1.2761,-0.6766 1.8767,-1.0525c0.6005,-0.3759 1.201,-0.6766 1.7265,-1.0525c1.126,-0.6766 2.1019,-1.3533 2.9276,-1.9547c0.9008,-0.6014 1.5764,-1.2029 2.177,-1.654c1.201,-0.9773 1.8016,-1.5787 1.8016,-1.5787c0,0 -0.6006,0.6014 -1.7266,1.6539z" fill="#7d9950"/></g><g><g><g><path d="M423.87011,126.7351c-4.2788,5.1874 2.252,18.7949 4.504,29.0194c2.252,10.2245 6.3807,35.7104 -7.4316,51.4982c-17.5657,20.073 -35.807,4.3604 -39.4102,-6.5406c-3.6032,-10.9011 -4.8043,-19.4716 9.3083,-22.4036c13.5871,-2.8569 24.622,-9.9238 17.0402,-31.1245c-5.63,-15.863 -0.4504,-35.109 6.5308,-38.1162c10.059,-4.3604 13.8124,12.3295 9.4585,17.6673z" fill="#7cbf2e"/><path d="M395.56981,215.3721c14.2628,-9.9989 26.1233,-27.0647 28.0751,-36.9885c3.2279,-16.314 -7.9571,-42.5518 -3.5282,-43.5291c1.1261,-0.2255 2.0269,0.1504 2.7775,0.7518c1.126,6.0896 4.1287,13.6827 5.4799,19.9978c2.252,10.2245 6.3807,35.7105 -7.4316,51.4982c-9.0081,10.2997 -18.0912,11.277 -25.3727,8.2698z" fill="#b4d189"/></g><path d="M400.67441,174.9254c0.3753,-0.1504 0.9008,-0.4511 1.5764,-0.9022c0.3753,-0.2255 0.7507,-0.4511 1.126,-0.7518c0.3753,-0.3007 0.7507,-0.6014 1.2011,-0.9773c0.8257,-0.7518 1.7265,-1.654 2.4772,-2.7817c0.8257,-1.1277 1.5013,-2.4057 2.0268,-3.9093c0.5255,-1.5036 0.8257,-3.0824 0.9759,-4.8115c0.1501,-1.7292 0.075,-3.4583 -0.1502,-5.2626c-0.3002,-1.7292 -0.6756,-3.5335 -1.2761,-5.2626c-1.2011,-3.4583 -2.1019,-7.0669 -2.7024,-10.45c-0.6006,-3.3831 -0.8258,-6.6158 -0.6756,-9.3975c0.075,-1.4284 0.3002,-2.6313 0.4504,-3.759c0.1501,-1.1277 0.3753,-2.105 0.5254,-2.8568c0.3754,-1.5788 0.6006,-2.481 0.6006,-2.481c0,0 -0.2252,0.9022 -0.5255,2.481c-0.1501,0.7518 -0.3003,1.7291 -0.4504,2.8568c-0.1501,1.1277 -0.3003,2.4058 -0.3753,3.759c-0.0751,2.7065 0.2252,5.9392 0.8257,9.3223c0.6006,3.3831 1.5764,6.9166 2.7775,10.3748c0.6756,1.8043 1.0509,3.6087 1.2761,5.413c0.2252,1.8043 0.3003,3.6086 0.1502,5.3377c-0.1502,1.7292 -0.5255,3.3831 -1.051,4.8867c-0.5254,1.4285 -1.2761,2.7817 -2.1019,3.9094c-0.8257,1.2029 -1.8016,2.0298 -2.6273,2.7816c-0.4504,0.3759 -0.9008,0.6767 -1.2761,0.9774c-0.3754,0.3007 -0.7507,0.5262 -1.1261,0.7518c-0.6756,0.4511 -1.2761,0.7518 -1.6514,0.9021c-0.3754,0.2256 -0.6006,0.3008 -0.6006,0.3008c0,0 0.2252,-0.0752 0.6006,-0.4511z" fill="#519b3d"/></g><path d="M421.54301,206.5009c1.051,-1.3532 2.4772,-3.3079 3.8284,-5.864c1.3512,-2.5561 2.6274,-5.7137 3.5282,-9.172c0.9008,-3.5334 1.4263,-7.3676 1.6515,-11.2018c0.075,-1.8795 0.075,-3.8341 0.075,-5.7136c-0.075,-1.8795 -0.1501,-3.759 -0.3002,-5.5633c-0.1502,-1.8044 -0.3003,-3.5335 -0.5255,-5.1874c-0.2252,-1.5788 -0.4504,-3.1576 -0.7507,-4.586c-0.5255,-2.8569 -1.126,-5.1874 -1.5013,-6.8414c-0.4504,-1.654 -0.6756,-2.5561 -0.6756,-2.5561c0,0 0.3002,0.9022 0.7506,2.5561c0.4504,1.654 1.051,3.9845 1.6515,6.8414c0.3003,1.3532 0.6006,2.932 0.8258,4.586c0.2252,1.6539 0.4504,3.383 0.6005,5.1874c0.1501,1.8043 0.2252,3.6838 0.3003,5.5633c0.075,1.8795 0.075,3.8341 -0.0751,5.7888c-0.2252,3.9094 -0.7507,7.7435 -1.7265,11.277c-0.9008,3.4583 -2.2521,6.6158 -3.6783,9.1719c-1.4263,2.5562 -2.9276,4.5108 -3.9786,5.7889c-1.126,1.2781 -1.7265,2.0299 -1.7265,2.0299c0,0 0.6005,-0.7518 1.7265,-2.1051z" fill="#7d9950"/></g><g><g><path d="M388.06311,277.997c0,0 1.2011,-2.1051 1.7266,-1.2029c0.3753,0.5262 -0.0751,0.7518 -0.6006,0.7518c-0.4504,0 -0.6005,0 -1.126,0.4511z" fill="#a1af93"/><path d="M396.47061,202.5164c4.9544,7.1421 4.8794,23.2306 -3.9035,34.282c-8.7828,11.0514 -1.7265,23.7568 1.7266,28.1173c4.3539,5.4881 6.9061,5.7136 7.5067,8.2697c0.6756,2.6313 -5.3298,6.8414 -14.1877,-5.4881c-7.5067,-10.45 -15.6139,-17.5921 -12.0107,-27.3655c3.9035,-10.6755 -2.252,-16.0133 -3.9035,-26.1625c-1.6515,-9.999 16.2895,-23.7569 24.7721,-11.6529z" fill="#7cbf2e"/><path d="M375.82721,238.6027c0.0751,-0.3007 0.1501,-0.5262 0.2252,-0.9021c0.0751,-0.3008 0.1501,-0.6767 0.2252,-1.1277c0.0751,-0.3759 0.1501,-0.827 0.1501,-1.3533c0,-0.4511 0,-0.9773 0,-1.5036c0,-0.5262 -0.0751,-1.1277 -0.0751,-1.6539c-0.075,-0.5263 -0.1501,-1.1277 -0.2251,-1.654c-0.0751,-0.5263 -0.1502,-1.1277 -0.3003,-1.654c-0.0751,-0.5262 -0.2252,-1.0525 -0.3754,-1.5788c-0.1501,-0.5262 -0.3002,-1.0525 -0.4504,-1.5036c-0.1501,-0.451 -0.3002,-0.9021 -0.4504,-1.278c-0.2252,-0.827 -0.6005,-1.5036 -0.7506,-1.9547c-0.2252,-0.4511 -0.3003,-0.7518 -0.3003,-0.7518c0,0 0.1501,0.2255 0.3753,0.6766c0.1502,0.2256 0.3003,0.5263 0.4504,0.827c0.2252,0.3007 0.3754,0.6766 0.5255,1.0525c0.1501,0.3759 0.3003,0.827 0.5255,1.2781c0.1501,0.5262 0.3753,0.9773 0.5254,1.5036c0.1502,0.4511 0.3003,1.0525 0.4504,1.5788c0.1502,0.6014 0.2252,1.1277 0.3754,1.7291c0.1501,0.6014 0.1501,1.1277 0.2252,1.7291c0.0751,0.5263 0.0751,1.1277 0.0751,1.654c0,0.5263 0,1.0525 -0.0751,1.5788c-0.0751,0.4511 -0.1501,0.9021 -0.2252,1.3532c-0.2252,0.9022 -0.4504,1.5788 -0.6006,2.0299c-0.1501,0.5262 -0.3002,0.7518 -0.3002,0.7518c0,0 0.075,-0.3007 0,-0.827z" fill="#519b3d"/><path d="M392.94251,263.0362c-0.2252,-0.2256 -0.4504,-0.6015 -0.7507,-0.9774c-0.2252,-0.3759 -0.5255,-0.827 -0.8257,-1.3532c-0.3003,-0.4511 -0.6006,-1.0525 -0.9008,-1.654c-0.3003,-0.6014 -0.5255,-1.278 -0.8258,-1.9547c-0.2252,-0.6766 -0.4504,-1.4284 -0.6756,-2.1802c-0.2252,-0.7518 -0.4504,-1.5788 -0.5254,-2.3306l-0.1502,-1.2028c0,-0.4511 -0.075,-0.827 -0.075,-1.2029c-0.0751,-0.7518 0,-1.5036 0,-2.2554c0,-0.7518 0.2252,-1.4284 0.3002,-2.1051c0,-0.3759 0.0751,-0.6766 0.1502,-0.9773c0.075,-0.3007 0.1501,-0.6014 0.2252,-0.9022c0.1501,-0.5262 0.2252,-1.0525 0.4504,-1.5036c0.2252,-0.451 0.3753,-0.8269 0.5254,-1.1277c0.3003,-0.6014 0.4504,-0.9773 0.4504,-0.9773c0,0 -0.1501,0.3007 -0.3753,0.9773c-0.1501,0.3008 -0.3003,0.6767 -0.4504,1.1277c-0.1501,0.3759 -0.2252,0.9774 -0.3754,1.5036c-0.075,0.3008 -0.1501,0.6015 -0.2252,0.9022c-0.075,0.3007 -0.075,0.6766 -0.1501,0.9773c-0.0751,0.6767 -0.2252,1.3533 -0.2252,2.1051c0,0.7518 -0.0751,1.5036 0,2.2554c0,0.3759 0.0751,0.7518 0.0751,1.1277l0.1501,1.1277c0.0751,0.7518 0.3003,1.5036 0.4504,2.2554c0.2252,0.6766 0.4504,1.4284 0.6756,2.105c0.2252,0.6766 0.4504,1.3533 0.7507,1.9547c0.3003,0.6766 0.5255,1.2029 0.8257,1.7291c0.2252,0.5263 0.5255,0.9774 0.7507,1.4285c0.3003,0.3759 0.4504,0.7518 0.6756,1.0525c0.3753,0.6014 0.6005,0.9021 0.6005,0.9021c0,0 -0.3002,-0.3007 -0.5254,-0.8269z" fill="#519b3d"/><path d="M401.35001,271.757c1.2011,0.9022 4.2788,2.7065 5.63,2.7817c1.3512,0.0752 1.5014,-1.2781 3.303,-0.9022c1.8016,0.4511 1.9517,2.1051 1.126,3.0824c-0.8258,0.9021 -1.126,0.9021 -1.8016,0.827c0,0 0.1501,0.6766 -0.2252,1.4284c-0.4504,0.9773 -1.4263,1.0525 -2.3271,0.6766c-0.9008,-0.3759 -1.2762,-0.2255 -1.2762,-0.2255c0,0 0.3003,1.278 -0.4504,2.0298c-1.0509,0.9774 -2.0268,0.6766 -3.1528,-0.5262c-1.126,-1.2029 -2.6273,-1.4285 -4.9544,-1.4285c-1.7265,0 -2.5523,-0.9773 -3.5281,-1.8795c-0.6756,-0.6014 -1.5014,-0.9773 -2.1019,-0.6014c-0.9008,0.6014 -2.0268,1.0525 -2.4772,0.0752c-0.8258,-1.7292 2.1019,-1.7292 2.1019,-2.8568c0,-1.7292 -3.3781,-4.8867 -0.4504,-5.413c2.9276,-0.5263 8.4075,1.2781 10.5844,2.932z" fill="#7cbf2e"/><path d="M391.06581,274.9898c0.1501,-0.0752 0.2252,-0.3008 0.2252,-0.6015c0,-0.3007 -0.0751,-0.6014 -0.2252,-0.9773c-0.1501,-0.3759 -0.3753,-0.7518 -0.6005,-1.2029c-0.3003,-0.4511 -0.6006,-0.9022 -0.9008,-1.3532c-0.3754,-0.5263 -0.6756,-0.9774 -1.051,-1.5036c-0.7507,-1.0526 -1.5764,-2.1051 -2.3271,-3.1576c-1.5764,-2.105 -3.1528,-4.2852 -4.3539,-5.864c-1.201,-1.654 -1.9517,-2.7065 -1.9517,-2.7065c0,0 0.9008,1.0525 2.1769,2.5561c0.6756,0.7518 1.4263,1.654 2.177,2.6313c0.7507,0.9774 1.5764,2.0299 2.4021,3.0824c0.7507,1.0525 1.5014,2.105 2.252,3.1575c0.3003,0.5263 0.6756,1.0526 0.9759,1.5037c0.3003,0.5262 0.6005,0.9773 0.8257,1.4284c0.2252,0.4511 0.4504,0.9021 0.5255,1.278c0.0751,0.3759 0.1501,0.7518 0.0751,1.0526c-0.0751,0.3007 -0.1502,0.5262 -0.3003,0.6014c-0.1501,0.1504 -0.2252,0.1504 -0.2252,0.1504c0,0 0.0751,0 0.3003,-0.0752z" fill="#519b3d"/><path d="M409.38221,277.3955c-0.1502,-0.1503 -0.3003,-0.4511 -0.6006,-0.6766c-0.1501,-0.1504 -0.3753,-0.2256 -0.5255,-0.3007c-0.1501,-0.0752 -0.3753,-0.1504 -0.6005,-0.1504c-0.2252,0 -0.4504,0 -0.6756,0.0752c-0.2252,0.0752 -0.4504,0.1503 -0.7507,0.1503c-0.5254,0.0752 -1.0509,0 -1.5764,-0.1503c-0.4504,-0.1504 -0.9008,-0.3007 -1.2761,-0.5263c-0.3003,-0.2255 -0.6006,-0.451 -0.7507,-0.6014c-0.1501,-0.2256 -0.2252,-0.3007 -0.2252,-0.3007c0,0 0.0751,0.0751 0.3003,0.2255c0.1501,0.0752 0.4504,0.2256 0.8257,0.3759c0.3754,0.1504 0.8258,0.3007 1.2762,0.3759c0.4504,0.0752 0.9758,0.1504 1.4262,0.0752c0.2252,0 0.4504,-0.0752 0.7507,-0.1504c0.3003,0 0.5255,0 0.8257,0c0.5255,0 0.9759,0.3008 1.2762,0.6015c0.1501,0.1503 0.2252,0.3007 0.3003,0.4511c0.075,0.1503 0.1501,0.3007 0.1501,0.3759c0.0751,0.2255 0.0751,0.3759 0.0751,0.3759c0,0 0,-0.1504 -0.2252,-0.2256z" fill="#519b3d"/><path d="M405.70391,279.275c-0.0751,-0.1503 -0.1502,-0.3759 -0.3754,-0.6014c-0.4504,-0.4511 -1.126,-0.827 -1.8767,-0.9022c-0.7506,-0.0752 -1.5764,-0.1503 -2.1769,-0.3759c-0.3003,-0.0752 -0.5255,-0.2255 -0.6756,-0.3007c-0.1501,-0.0752 -0.2252,-0.1504 -0.2252,-0.1504c0,0 0.3753,0.1504 0.9759,0.2256c0.5254,0.0752 1.3512,0.0752 2.1769,0.2255c0.1501,0.0752 0.3754,0.0752 0.6006,0.1504c0.2252,0 0.4504,0.1503 0.6005,0.2255c0.3753,0.2256 0.6756,0.4511 0.8257,0.7518c0.3003,0.5263 0.3003,0.9774 0.3003,0.9774c0,0 0,-0.0752 -0.1501,-0.2256z" fill="#519b3d"/><path d="M404.95321,281.2297c-0.6756,-0.3759 -1.126,-0.9022 -0.2252,-1.2781c1.5013,-0.6014 1.4263,2.6313 1.4263,2.6313c-0.3754,-0.827 -0.6756,-0.9021 -1.2011,-1.3532z" fill="#a1af93"/><path d="M408.78161,279.275c-0.7507,-0.3007 -1.2761,-0.7518 -0.4504,-1.278c1.3512,-0.9022 1.8767,2.3305 1.8767,2.3305c-0.4504,-0.7518 -0.7507,-0.7518 -1.4263,-1.0525z" fill="#a1af93"/><path d="M411.55911,276.8693c-0.7507,0 -1.4263,-0.2256 -0.8257,-1.0526c0.9758,-1.278 2.5522,1.5788 2.5522,1.5788c-0.7506,-0.5262 -0.9758,-0.5262 -1.7265,-0.5262z" fill="#a1af93"/></g><path d="M399.62341,215.1466c0,-0.7518 -0.075,-1.654 -0.1501,-2.5561c-0.0751,-0.9022 -0.1501,-1.8795 -0.3003,-2.8569c-0.075,-0.451 -0.1501,-0.9773 -0.2252,-1.4284c-0.075,-0.4511 -0.1501,-0.9021 -0.3002,-1.3532c-0.0751,-0.4511 -0.2252,-0.9022 -0.3754,-1.2781c-0.1501,-0.4511 -0.3002,-0.7518 -0.4504,-1.1277c-0.1501,-0.3759 -0.3002,-0.6014 -0.4504,-0.9021c-0.075,-0.1504 -0.1501,-0.3008 -0.2252,-0.3759c-0.075,-0.1504 -0.1501,-0.2256 -0.2252,-0.3008c-0.2252,-0.3007 -0.3753,-0.5262 -0.3753,-0.5262c0,0 0.1501,0.1503 0.4504,0.4511c0.0751,0.0751 0.1501,0.1503 0.2252,0.2255c0.0751,0.1504 0.1501,0.2255 0.2252,0.3759c0.1501,0.3007 0.3753,0.5263 0.5255,0.9022c0.1501,0.3759 0.3753,0.7518 0.5254,1.1277c0.1502,0.3759 0.3754,0.8269 0.4504,1.278c0.1502,0.4511 0.3003,0.9774 0.3754,1.4284c0.1501,0.5263 0.2252,0.9774 0.3002,1.5036c0.1502,0.9774 0.2252,2.0299 0.3003,2.932c0,0.9022 0,1.8044 0,2.5562c-0.0751,1.5036 -0.2252,2.4809 -0.2252,2.4809c0,0 0,-1.0525 -0.0751,-2.5561z" fill="#519b3d"/></g><g><g><g><path d="M332.28831,188.6081c7.6569,11.7281 3.7534,37.4396 -6.0804,41.4993c-15.0134,6.1647 -23.7963,11.5777 -28.6006,13.7579c-4.7292,2.105 -5.4048,4.2852 -9.4584,24.7342c-1.0509,5.1122 -7.807,12.7054 -7.9571,1.6539c0,-2.1802 -0.3753,-18.9453 1.8767,-24.5838c4.2037,-10.2996 8.7078,-9.2471 12.0858,-12.1039c4.2788,-3.5335 8.7077,-10.6004 3.0026,-21.6519c-10.8847,-21.0503 16.1395,-52.4003 35.1314,-23.3057z" fill="#7cbf2e"/><path d="M287.99881,272.5088c0.5254,1.4284 3.5281,3.6087 4.8043,3.9846c1.2761,0.3759 1.7265,-0.9022 3.453,-0.0752c1.6515,0.827 1.4263,2.4809 0.3754,3.2327c-1.051,0.7518 -1.3512,0.6014 -1.9518,0.4511c0,0 0,0.6766 -0.5254,1.3532c-0.6756,0.827 -1.6515,0.7518 -2.4022,0.1504c-0.7506,-0.6015 -1.126,-0.5263 -1.126,-0.5263c0,0 0,1.3533 -0.9008,1.8795c-1.2761,0.7518 -2.1019,0.1504 -2.9276,-1.278c-0.8257,-1.4285 -2.1769,-1.9547 -4.504,-2.481c-1.6515,-0.3759 -3.0778,-3.5334 -2.7024,-6.7662c0.5255,-4.6611 0.6005,-7.5931 3.4531,-8.1946c8.3324,-1.8043 4.0536,5.7137 4.9544,8.2698z" fill="#7cbf2e"/><path d="M294.45451,279.7261c0,-0.2256 -0.1501,-0.5263 -0.3753,-0.827c-0.1501,-0.1503 -0.3003,-0.2255 -0.4504,-0.3759c-0.1501,-0.1503 -0.3753,-0.2255 -0.6005,-0.3007c-0.2252,0 -0.4504,-0.0752 -0.6756,-0.0752c-0.3003,0 -0.5255,0 -0.8258,0c-0.5254,-0.0752 -1.0509,-0.3007 -1.5013,-0.5262c-0.4504,-0.3008 -0.8258,-0.5263 -1.126,-0.827c-0.3003,-0.3007 -0.4504,-0.5263 -0.6006,-0.7518c-0.075,-0.1504 -0.1501,-0.3007 -0.1501,-0.3007c0,0 0.0751,0.0751 0.2252,0.2255c0.1501,0.1504 0.4504,0.3759 0.7507,0.6014c0.3002,0.2256 0.6756,0.3759 1.126,0.6015c0.4504,0.2255 0.9759,0.3759 1.4263,0.4511c0.2252,0.0751 0.4504,0.0751 0.7506,0.0751c0.3003,0 0.6006,0.0752 0.8258,0.1504c0.5254,0.1504 0.9008,0.5263 1.126,0.9022c0.1501,0.1503 0.1501,0.3759 0.2252,0.5262c0.075,0.2256 0.075,0.3007 0.075,0.4511c0,0.2255 0,0.3759 0,0.3759c0,0 0,-0.1504 -0.2252,-0.3759z" fill="#519b3d"/><path d="M290.47601,280.8538c-0.0751,-0.2256 -0.1501,-0.4511 -0.3003,-0.6766c-0.2252,-0.5263 -0.8257,-0.9774 -1.5764,-1.2781c-0.6756,-0.3007 -1.5013,-0.6014 -2.0268,-0.9021c-0.3003,-0.1504 -0.4504,-0.3008 -0.6006,-0.4511c-0.075,-0.1504 -0.1501,-0.2256 -0.1501,-0.2256c0,0 0.3003,0.2256 0.9008,0.4511c0.5255,0.1504 1.3512,0.3759 2.1019,0.6766c0.2252,0.0752 0.4504,0.1504 0.6005,0.3008c0.2252,0.0751 0.3754,0.2255 0.5255,0.3759c0.3003,0.2255 0.5255,0.6014 0.6005,0.9021c0.2252,0.6015 0.0751,1.0525 0.0751,1.0525c0,0 0,-0.0751 -0.1501,-0.2255z" fill="#519b3d"/><path d="M289.27491,282.6581c-0.5255,-0.5263 -0.9008,-1.2029 0.0751,-1.3532c1.5764,-0.3008 0.8257,2.8568 0.8257,2.8568c-0.1501,-0.9022 -0.3753,-1.0525 -0.9008,-1.5036z" fill="#a1af93"/><path d="M293.47871,281.5304c-0.6006,-0.4511 -1.1261,-0.9773 -0.1502,-1.3532c1.5764,-0.5263 1.3512,2.7064 1.3512,2.7064c-0.3002,-0.8269 -0.5254,-0.9021 -1.201,-1.3532z" fill="#a1af93"/><path d="M296.70651,279.8765c-0.6756,-0.2256 -1.2761,-0.6015 -0.5254,-1.2029c1.201,-1.0525 2.1019,2.105 2.1019,2.105c-0.5255,-0.7518 -0.8258,-0.7518 -1.5765,-0.9021z" fill="#a1af93"/><path d="M299.33391,225.2207c0.0751,-0.4511 0.1501,-1.1277 0.1501,-1.9547c0.0751,-0.7518 0,-1.7291 -0.1501,-2.7065c-0.0751,-0.451 -0.0751,-0.9773 -0.2252,-1.5036c-0.1501,-0.5262 -0.2252,-1.0525 -0.3753,-1.5787c-0.0751,-0.5263 -0.2252,-1.0526 -0.3754,-1.5788c-0.1501,-0.5263 -0.3003,-1.0525 -0.4504,-1.5036c-0.1501,-0.4511 -0.3003,-0.9022 -0.4504,-1.3533c-0.1501,-0.451 -0.3003,-0.8269 -0.4504,-1.2028c-0.3003,-0.7518 -0.6005,-1.3533 -0.7507,-1.8044c-0.2252,-0.451 -0.3002,-0.6766 -0.3002,-0.6766c0,0 0.1501,0.3007 0.3753,0.6766c0.2252,0.3759 0.6005,0.9774 0.9008,1.7292c0.1501,0.3759 0.3003,0.7518 0.5255,1.2029c0.1501,0.451 0.3753,0.9021 0.5255,1.3532c0.2252,0.5263 0.3753,0.9773 0.5254,1.5036c0.1502,0.5263 0.3003,1.0525 0.4504,1.5788c0.0751,0.5262 0.2252,1.0525 0.3003,1.5788c0.1501,0.5262 0.1501,1.0525 0.2252,1.5787c0.0751,0.5263 0.0751,1.0526 0.0751,1.5036c0,0.5263 0,0.9774 -0.0751,1.3533c0,0.827 -0.1501,1.5036 -0.3003,1.9547c-0.075,0.451 -0.2252,0.6766 -0.2252,0.6766c0,0 0.1502,-0.2256 0.0751,-0.827z" fill="#519b3d"/><path d="M336.64221,206.2002c-0.1501,1.2781 -0.3753,3.0824 -0.6756,5.1874c-0.3003,2.105 -0.7507,4.586 -1.4263,7.2173c-0.3753,1.278 -0.7506,2.6313 -1.2761,3.9845c-0.5255,1.3532 -1.126,2.6313 -2.0268,3.8342c-0.9008,1.1277 -1.9518,2.1802 -3.1528,2.932c-1.2011,0.7518 -2.4772,1.3532 -3.6783,1.8795c-2.4772,1.0525 -4.8794,1.9547 -6.8311,2.7816c-1.9518,0.827 -3.6032,1.5788 -4.7292,2.1051c-1.051,0.6014 -1.7266,0.9021 -1.7266,0.9021c0,0 0.6006,-0.3759 1.7266,-0.9773c1.126,-0.6014 2.7024,-1.4284 4.6541,-2.3306c1.9518,-0.9021 4.2788,-1.8795 6.7561,-2.932c1.201,-0.5263 2.4772,-1.1277 3.6032,-1.8795c1.126,-0.7518 2.1769,-1.7291 3.0027,-2.8568c0.8257,-1.1277 1.4262,-2.4058 1.9517,-3.6838c0.5255,-1.2781 0.9008,-2.6313 1.2761,-3.9094c0.6756,-2.5561 1.2011,-5.037 1.5764,-7.1421c0.7507,-4.21 1.1261,-7.0669 1.1261,-7.0669c0,0 -0.0751,0.6766 -0.1502,1.9547z" fill="#519b3d"/></g><g fill="#89ce30"><path d="M301.73601,189.5854c-0.6005,-5.1874 7.4317,-8.0442 12.8365,-8.0442c5.4799,0 3.8284,5.1122 0.9759,8.9464c-2.8526,3.8342 -13.1368,4.1349 -13.8124,-0.9022z"/><path d="M308.19181,196.502c4.1287,-0.9022 9.1582,1.8043 5.1046,3.2327c-6.3807,2.2554 -9.2333,-2.3306 -5.1046,-3.2327z"/><path d="M320.35271,192.0664c2.9276,-1.0525 2.5522,2.5561 0.6756,3.8342c-1.8767,1.278 -4.2038,-2.5562 -0.6756,-3.8342z"/></g></g><path d="M299.25881,243.1135c-0.5254,0.3007 -1.3512,0.6766 -2.252,1.2029c-0.4504,0.3007 -0.9759,0.5262 -1.4263,0.9021c-0.2252,0.2256 -0.5254,0.3759 -0.6756,0.6015c-0.1501,0.2255 -0.3753,0.5262 -0.5254,0.7518c-0.7507,1.0525 -1.2762,2.4057 -1.7266,3.6838c-0.4504,1.2781 -0.8257,2.6313 -1.201,3.9093c-0.3754,1.2781 -0.7507,2.4058 -0.9759,3.4583c-0.5255,2.0299 -0.9008,3.3831 -0.9008,3.3831c0,0 0.0751,-0.3759 0.1501,-0.9773c0.0751,-0.6015 0.2252,-1.4285 0.4504,-2.481c0.2252,-1.0525 0.5255,-2.2554 0.8258,-3.5334c0.3753,-1.2781 0.7506,-2.6313 1.201,-3.9846c0.4504,-1.3532 1.051,-2.6313 1.8016,-3.759c0.2252,-0.3007 0.3754,-0.6014 0.6006,-0.8269c0.2252,-0.2256 0.5255,-0.4511 0.7507,-0.6015c0.5254,-0.3007 1.0509,-0.6014 1.5013,-0.8269c0.9008,-0.5263 1.7265,-0.827 2.3271,-1.0526c0.6005,-0.2255 0.9008,-0.3007 0.9008,-0.3007c0,0 -0.3754,0.2255 -0.8258,0.4511z" fill="#519b3d"/></g><g><path d="M303.53761,81.3265c46.992,-11.1267 60.9545,17.7424 60.9545,17.7424c-19.1421,25.2604 0.9008,71.496 0.9008,71.496c-24.3968,-27.2902 -67.3352,0 -67.3352,0c1.4263,-32.8536 -28.1501,-18.3438 -28.1501,-18.3438c9.2333,-31.9515 -13.3619,-31.1245 -20.3432,-27.8918c0,0 31.9035,-37.8154 53.9732,-43.0028z" fill="#b4d189"/><path d="M367.41971,176.2034c-3.303,-11.4273 -11.9357,-16.0885 -15.7641,-32.9288c-3.4531,-15.1111 5.0295,-35.1089 5.0295,-35.1089c0,0 -13.1367,3.2327 -27.3995,10.7507c-14.7882,7.8187 -32.8043,56.2345 -32.8043,56.2345c0,0 4.8794,-24.8845 14.1877,-46.1604c9.3083,-21.3511 46.5416,-28.418 46.5416,-28.418c0,0 -29.8767,-5.1122 -43.1636,0.2255c-13.2868,5.3378 -46.2413,55.6331 -46.2413,55.6331c15.0134,-36.387 32.2789,-53.6784 42.9384,-62.5496c10.5844,-8.8712 47.3673,-0.4511 47.3673,-0.4511c-3.1528,-7.4428 -32.2038,-11.8032 -49.6193,-9.7734c-17.3405,2.0299 -63.2815,45.3335 -63.2815,45.3335c0,0 38.0589,-48.2655 61.2547,-51.7238c29.4262,-4.4356 60.504,9.5479 60.504,9.5479c0.9008,-7.9691 -8.4075,-9.3223 -8.4075,-9.3223c7.5067,-1.3533 13.7372,5.3377 15.9142,14.209c2.1769,8.8712 -12.3861,26.9895 -14.6381,42.5518c-2.252,15.487 22.1448,39.0183 22.1448,39.0183c1.3512,6.2399 -12.3861,10.1493 -14.563,2.932z" fill="#7cbf2e"/><path d="M377.77891,169.0613c-1.2761,-1.3532 -3.0777,-3.3079 -5.1045,-5.7888c-2.0268,-2.4809 -4.2788,-5.413 -6.4558,-8.7209c-2.1769,-3.3079 -4.2788,-7.0669 -5.63,-11.1266c-0.6756,-2.0298 -1.051,-4.2101 -1.051,-6.3151c0.0751,-2.105 0.4504,-4.1349 0.9008,-6.0896c0.9008,-3.8341 2.252,-7.3676 3.4531,-10.2996c1.2762,-3.0072 2.4772,-5.3378 3.303,-6.9917c0.8257,-1.654 1.3512,-2.5562 1.3512,-2.5562c0,0 -2.0268,3.759 -4.3539,9.6231c-1.2011,2.932 -2.4021,6.4654 -3.303,10.2996c-0.3753,1.9547 -0.7506,3.9845 -0.8257,6.0144c0,2.105 0.3753,4.1349 1.0509,6.1647c1.2762,3.9846 3.3781,7.7436 5.4799,11.0515c2.1019,3.3079 4.3539,6.3151 6.3057,8.796c3.9785,4.9619 6.9061,8.0443 6.9061,8.0443c0,0 -0.7506,-0.7518 -2.0268,-2.1051z" fill="#519b3d"/><path d="M358.11141,100.5725c-1.051,0.2255 -2.4772,0.6014 -4.2038,1.0525c-1.7265,0.4511 -3.7533,1.0525 -5.8552,1.7292c-2.1019,0.6014 -4.3539,1.4284 -6.6059,2.2553c-2.177,0.827 -4.429,1.7292 -6.4558,2.6313c-2.0268,0.9022 -3.9035,1.8044 -5.4799,2.6313c-1.5764,0.827 -2.9276,1.5036 -3.8284,2.0299c-0.9008,0.5263 -1.4263,0.827 -1.4263,0.827c0,0 0.4504,-0.3007 1.3513,-0.9022c0.9008,-0.5262 2.1769,-1.3532 3.7533,-2.1802c1.5764,-0.827 3.4531,-1.8795 5.4799,-2.7816c2.0268,-0.9022 4.2038,-1.8795 6.4558,-2.7065c2.252,-0.827 4.504,-1.5788 6.6809,-2.2554c2.177,-0.6766 4.2038,-1.2029 5.9303,-1.5788c1.8016,-0.4511 3.2279,-0.6766 4.2788,-0.9022c0.9759,-0.2255 1.5764,-0.3007 1.5764,-0.3759c0,0 -0.6005,0.1504 -1.6514,0.5263z" fill="#519b3d"/><path d="M358.63681,93.656c-1.0509,-0.2256 -2.6273,-0.5263 -4.504,-0.9022c-1.8016,-0.3759 -4.0536,-0.6766 -6.3807,-1.0525c-2.4021,-0.3759 -4.8793,-0.6766 -7.4316,-0.9022c-1.2762,-0.1503 -2.4772,-0.2255 -3.7534,-0.3007c-1.2761,-0.1504 -2.4772,-0.1504 -3.6783,-0.2255c-1.201,-0.0752 -2.327,-0.0752 -3.453,-0.0752c-1.126,0 -2.1019,0 -3.0778,0c-0.9759,0 -1.8767,0 -2.6273,0c-0.8258,0 -1.5014,0.0752 -2.0268,0.0752c-1.1261,0.0751 -1.7266,0.0751 -1.7266,0.0751c0,0 0.6006,-0.0751 1.7266,-0.1503c0.6005,0 1.2761,-0.0752 2.0268,-0.1504c0.8257,-0.0752 1.6514,-0.1503 2.6273,-0.1503c0.9759,-0.0752 1.9518,-0.0752 3.0778,-0.0752c1.126,0.0752 2.252,0 3.453,0.0752c1.2011,0 2.4022,0.0751 3.6783,0.1503c1.2011,0.0752 2.4772,0.1504 3.7534,0.3007c2.5523,0.2256 5.1045,0.5263 7.4316,0.9022c1.2011,0.1504 2.3271,0.3759 3.378,0.6014c1.051,0.2256 2.1019,0.3759 3.0027,0.6015c1.8767,0.451 3.4531,0.827 4.504,1.1277c1.051,0.2255 1.6515,0.4511 1.6515,0.4511c0,0 -0.6005,-0.2256 -1.6515,-0.3759z" fill="#519b3d"/><path d="M364.79231,85.7621c-1.4262,-0.6015 -3.6032,-1.3533 -6.1555,-2.1803c-1.3512,-0.3759 -2.7024,-0.8269 -4.2037,-1.278c-1.5014,-0.5263 -3.0778,-0.9022 -4.7292,-1.3533c-1.5764,-0.3759 -3.303,-0.8269 -5.0295,-1.2028c-1.7266,-0.3759 -3.4531,-0.7518 -5.2547,-1.0526c-0.8258,-0.2255 -1.7266,-0.3759 -2.6274,-0.5262c-0.9008,-0.0752 -1.7265,-0.2256 -2.6273,-0.3759c-0.9008,-0.1504 -1.8016,-0.3007 -2.6274,-0.3759c-0.8257,-0.0752 -1.7265,-0.2256 -2.5522,-0.3007c-0.8258,-0.1504 -1.6515,-0.2256 -2.4773,-0.3008c-0.8257,-0.0751 -1.6514,-0.0751 -2.4021,-0.1503c-0.7507,-0.0752 -1.5013,-0.0752 -2.252,-0.1504c-0.7507,-0.0752 -1.4263,-0.0752 -2.1019,-0.0752c-1.3512,0 -2.5523,-0.0751 -3.6783,-0.0751c-1.126,0 -2.0268,0.0751 -2.8525,0.0751c-1.5764,0.0752 -2.4772,0.0752 -2.4772,0.0752c0,0 0.9008,-0.0752 2.4772,-0.1503c0.8257,0 1.7265,-0.0752 2.8525,-0.1504c1.051,0 2.3271,0 3.6783,0c0.6756,0 1.3512,-0.0752 2.1019,0c0.7507,0.0752 1.5013,0.0752 2.252,0.1504c0.8257,0.0751 1.5764,0.0751 2.4021,0.1503c0.8258,0 1.6515,0.1504 2.4773,0.2256c0.8257,0.1503 1.6514,0.2255 2.5522,0.3007c0.9008,0.0752 1.7266,0.2255 2.6274,0.3759c0.8257,0.0752 1.7265,0.2255 2.6273,0.3759c0.9008,0.2255 1.8016,0.3759 2.7024,0.5262c1.7266,0.3008 3.5282,0.7518 5.2547,1.1277c1.8016,0.3759 3.4531,0.9022 5.1046,1.2781c1.5764,0.5263 3.1528,0.9773 4.6541,1.4284c1.4263,0.4511 2.8526,0.9022 4.1287,1.3533c1.2762,0.451 2.4022,0.9021 3.4531,1.278c0.9759,0.3759 1.8767,0.7518 2.6274,1.0525c1.4262,0.6015 2.252,0.9774 2.252,0.9774c0,0 -0.8258,-0.3759 -2.177,-1.0525z" fill="#519b3d"/><path d="M366.36871,173.7977c0,-0.3008 -0.075,-0.827 -0.3002,-1.3533c-0.2252,-0.5262 -0.4504,-1.2028 -0.8258,-1.9546c-0.3753,-0.7519 -0.8257,-1.5037 -1.3512,-2.4058c-0.5254,-0.9022 -1.126,-1.8043 -1.8016,-2.7817c-0.6005,-0.9021 -1.3512,-1.8795 -2.1019,-2.932c-1.5013,-2.0298 -2.9276,-4.4356 -4.1287,-6.8413c-1.201,-2.481 -2.1769,-5.0371 -3.0026,-7.4429c-0.8258,-2.4057 -1.3512,-4.7363 -1.7266,-6.7661c-0.3002,-2.0299 -0.4504,-3.6838 -0.4504,-4.8867c0,-0.6015 0.0751,-1.0525 0.0751,-1.3533c0.0751,-0.3007 0.0751,-0.451 0.0751,-0.451c0,0 0,0.1503 0,0.451c0,0.3008 0,0.7518 0,1.3533c0.075,1.2029 0.3002,2.932 0.6756,4.8867c0.3753,2.0298 0.9758,4.2852 1.8016,6.691c0.8257,2.4057 1.8016,4.9618 3.0026,7.3676c1.2011,2.4809 2.5523,4.8115 4.0537,6.8414c0.7506,0.9773 1.5013,2.0298 2.1018,3.0072c0.6756,0.9773 1.2011,1.8795 1.7266,2.7816c0.9759,1.8043 1.6515,3.3831 1.9517,4.5108c0.2252,0.6014 0.3003,1.0525 0.3003,1.3532c0,0.3008 0,0.4511 0,0.4511c0,0 0,-0.2255 -0.0751,-0.5262z" fill="#519b3d"/><path d="M357.73601,106.8124c-0.4504,0.9022 -0.9758,2.1051 -1.4262,3.3079c-0.4504,1.2029 -0.9008,2.481 -1.2762,3.3831c-0.2252,0.4511 -0.3753,0.827 -0.4504,1.1277c-0.075,0.3007 -0.1501,0.4511 -0.1501,0.4511c0,0 0,-0.1504 0.0751,-0.4511c0.075,-0.3007 0.075,-0.7518 0.2252,-1.2029c0.2252,-0.9773 0.6005,-2.2554 1.126,-3.4582c0.5254,-1.2029 1.126,-2.4058 1.6514,-3.2328c0.2252,-0.451 0.5255,-0.7518 0.6756,-0.9773c0.1502,-0.2255 0.3003,-0.3007 0.3003,-0.3007c0,0 -0.3753,0.5262 -0.7507,1.3532z" fill="#519b3d"/><path d="M357.81111,92.829c-0.1501,-0.1504 -0.3003,-0.3759 -0.5255,-0.6015c-0.1501,-0.2255 -0.4504,-0.451 -0.7506,-0.6766c-0.3003,-0.2255 -0.6006,-0.4511 -0.9759,-0.6766c-0.3753,-0.2255 -0.8257,-0.4511 -1.2011,-0.6766c-0.4504,-0.2256 -0.9008,-0.4511 -1.3512,-0.6766c-0.5255,-0.1504 -0.9759,-0.3759 -1.4263,-0.6015c-0.4504,-0.2255 -0.9758,-0.3759 -1.4262,-0.6014c-0.5255,-0.2256 -0.9759,-0.3759 -1.4263,-0.5263c-0.9008,-0.3759 -1.7265,-0.6766 -2.4772,-0.9021c-1.5013,-0.5263 -2.4772,-0.827 -2.4772,-0.827c0,0 0.2252,0.0752 0.6756,0.1503c0.3753,0.0752 1.0509,0.1504 1.8016,0.3759c0.7507,0.2256 1.6515,0.4511 2.5523,0.7518c0.4504,0.1504 0.9758,0.3008 1.4262,0.4511c0.4504,0.1504 0.9759,0.3007 1.4263,0.5263c0.5255,0.2255 0.9759,0.4511 1.4263,0.6766c0.4504,0.3007 0.9008,0.5263 1.3512,0.7518c0.4504,0.2255 0.8257,0.4511 1.2011,0.7518c0.3753,0.3007 0.6756,0.6014 0.9758,0.827c0.3003,0.2255 0.5255,0.5262 0.7507,0.7518c0.1501,0.2255 0.3003,0.4511 0.4504,0.6766c0.2252,0.4511 0.3003,0.6766 0.3003,0.6766c0,0 -0.0751,-0.2255 -0.3003,-0.6014z" fill="#519b3d"/><path d="M366.81921,83.9577c0.1501,0.4511 0.3002,0.9774 0.3002,1.5788c0,0.6015 0,1.2781 -0.3002,1.8795c-0.0751,0.1504 -0.2252,0.3007 -0.3003,0.4511c-0.0751,0.1504 -0.1501,0.2255 -0.2252,0.3759c-0.1501,0.2255 -0.2252,0.5263 -0.3003,0.7518c-0.1501,0.5263 0,1.0525 0.1501,1.4284c0.2252,0.3759 0.4504,0.6766 0.6756,0.827c0.2252,0.1504 0.3754,0.1504 0.3754,0.1504c0,0 -0.2252,0 -0.4504,-0.0752c-0.2252,-0.0752 -0.6006,-0.3007 -0.8258,-0.7518c-0.2252,-0.4511 -0.3753,-1.0525 -0.3002,-1.654c0.075,-0.3007 0.2252,-0.6014 0.3753,-0.9021c0.1501,-0.1504 0.2252,-0.2256 0.3003,-0.3759c0.075,-0.1504 0.1501,-0.2256 0.2252,-0.3759c0.2252,-0.5263 0.3002,-1.1277 0.3002,-1.654c0,-0.5263 -0.075,-1.0525 -0.1501,-1.5036c-0.1501,-0.9022 -0.3003,-1.5036 -0.3003,-1.5036c0,0 0.3003,0.5263 0.4504,1.3532z" fill="#519b3d"/><path d="M345.19981,159.288c-0.3753,-0.0752 -0.9008,-0.2256 -1.5764,-0.3008c-0.6756,-0.0751 -1.5013,-0.1503 -2.4772,-0.2255c-0.4504,-0.0752 -0.9758,-0.0752 -1.5013,-0.0752c-0.5255,-0.0752 -1.051,-0.0752 -1.6515,-0.0752c-0.5255,0 -1.2011,0 -1.8016,0c-0.6005,0 -1.2761,0.0752 -1.9517,0.0752c-1.3513,0.0752 -2.7775,0.3007 -4.2038,0.4511c-0.6756,0.0752 -1.4263,0.2255 -2.1769,0.3759c-0.7507,0.0752 -1.5014,0.2255 -2.252,0.3759c-0.7507,0.1504 -1.5014,0.3759 -2.2521,0.5263l-1.126,0.2255l-1.126,0.3007c-1.5013,0.4511 -3.0777,0.827 -4.504,1.3533c-0.7507,0.2255 -1.4263,0.5262 -2.1769,0.7518c-0.3754,0.1503 -0.6756,0.2255 -1.051,0.3759c-0.3753,0.1503 -0.6756,0.3007 -1.0509,0.451c-1.3512,0.5263 -2.6274,1.0526 -3.9035,1.5788c-1.2011,0.5263 -2.4021,1.0525 -3.4531,1.5788c-0.5255,0.2255 -0.9759,0.4511 -1.5013,0.6766c-0.4504,0.2256 -0.9008,0.4511 -1.3512,0.6766c-0.8258,0.4511 -1.5764,0.827 -2.177,1.1277c-1.2761,0.6015 -1.9517,0.9774 -1.9517,0.9774c0,0 0.6756,-0.3759 1.8767,-1.0525c0.6005,-0.3008 1.3512,-0.7518 2.1769,-1.2029c0.4504,-0.2256 0.9008,-0.4511 1.3512,-0.7518c0.4504,-0.2256 0.9759,-0.5263 1.5014,-0.7518c1.0509,-0.5263 2.252,-1.0525 3.453,-1.654c1.2011,-0.5262 2.5523,-1.1277 3.9035,-1.6539c0.3754,-0.1504 0.6756,-0.3008 1.051,-0.4511c0.3002,-0.1504 0.6756,-0.2256 1.0509,-0.3759c0.7507,-0.2256 1.4263,-0.5263 2.1769,-0.7518c1.4263,-0.5263 3.0027,-0.9022 4.5041,-1.3533l1.126,-0.3007l1.126,-0.2255c0.7507,-0.2256 1.5013,-0.3759 2.252,-0.5263c0.7507,-0.1503 1.5013,-0.2255 2.252,-0.3759c0.7507,-0.1503 1.5013,-0.3007 2.252,-0.3759c1.5014,-0.1503 2.9276,-0.3759 4.2788,-0.3759c0.6756,0 1.3513,-0.0752 1.9518,-0.0752c0.6756,0 1.2761,0 1.8767,0c1.201,0.0752 2.252,0.0752 3.2278,0.2256c0.9759,0.1503 1.8016,0.2255 2.4773,0.3759c0.6755,0.1503 1.201,0.3007 1.5764,0.3759c0.3753,0.0752 0.5254,0.1503 0.5254,0.1503c0,0 -0.1501,-0.0751 -0.7506,-0.0751z" fill="#7d9950"/><path d="M330.33661,118.3901c-0.4504,0.1504 -1.051,0.4511 -1.8016,0.9774c-0.7507,0.5262 -1.6515,1.2028 -2.5523,2.0298c-0.9008,0.9022 -1.8767,1.8795 -2.9276,3.0824c-2.0268,2.3306 -4.0536,5.3378 -6.0805,8.6457c-1.0509,1.6539 -2.0268,3.3831 -3.0026,5.1874c-1.051,1.7291 -1.9518,3.6086 -2.9276,5.4129c-1.9518,3.6838 -3.7534,7.3677 -5.4049,10.9011c-1.7265,3.5335 -3.2279,6.7662 -4.504,9.623c-1.2761,2.8569 -2.3271,5.1874 -3.0778,6.8414c-0.6756,1.654 -1.126,2.6313 -1.126,2.6313c0,0 0.3754,-0.9773 1.051,-2.6313c0.6756,-1.654 1.7265,-4.0597 2.9276,-6.9165c0.6005,-1.4285 1.2761,-2.9321 2.0268,-4.586c0.7507,-1.654 1.5013,-3.3831 2.3271,-5.1122c1.6514,-3.5335 3.4531,-7.2925 5.3297,-10.9763c0.4504,-0.9773 0.9008,-1.8795 1.4263,-2.7817c0.5255,-0.9021 0.9759,-1.8043 1.5013,-2.7064c0.9759,-1.8043 1.9518,-3.5335 3.0027,-5.1874c0.9759,-1.654 2.0268,-3.2328 3.0778,-4.6612c1.0509,-1.4284 2.1019,-2.7065 3.1528,-3.9093c2.1019,-2.3306 4.0536,-3.9846 5.63,-4.9619c0.7507,-0.5263 1.4263,-0.827 1.8767,-0.9774c0.4504,-0.1503 0.6756,-0.2255 0.6756,-0.2255c0,0 -0.3003,0 -0.6005,0.3007z" fill="#519b3d"/><path d="M270.65831,130.7948c-0.0751,-0.3007 -0.3003,-0.6766 -0.5255,-1.0525c-0.2252,-0.3759 -0.4504,-0.827 -0.8257,-1.2781c-0.3003,-0.4511 -0.6756,-0.9021 -1.126,-1.3532c-0.4504,-0.3759 -0.9008,-0.9022 -1.5014,-1.2781c-0.5254,-0.4511 -1.201,-0.7518 -1.8016,-1.1277c-0.3003,-0.2255 -0.6756,-0.3007 -0.9759,-0.4511c-0.3753,-0.0751 -0.6756,-0.3007 -1.0509,-0.3759l-1.0509,-0.3007c-0.3003,-0.0752 -0.6756,-0.2255 -1.051,-0.2255c-0.3753,-0.0752 -0.6756,-0.0752 -1.0509,-0.1504l-0.5255,-0.0752c-0.1501,0 -0.3753,0 -0.5255,0c-0.7506,0 -1.3512,-0.0751 -2.0268,-0.0751c-0.6756,0.0751 -1.2761,0.0751 -1.8016,0.1503c-0.3002,0 -0.6005,0.0752 -0.8257,0.0752c-0.3003,0.0752 -0.5255,0.0752 -0.7507,0.1504c-0.4504,0.0751 -0.9008,0.1503 -1.2011,0.2255c-0.6756,0.0752 -1.0509,0.1504 -1.0509,0.1504c0,0 0.3753,-0.0752 0.9759,-0.2256c0.3002,-0.0752 0.6756,-0.2255 1.126,-0.3007c0.1501,0 0.4504,-0.0752 0.6756,-0.1504c0.3003,0 0.5255,0 0.8257,-0.0751c0.5255,-0.0752 1.126,-0.1504 1.8016,-0.2256c0.6006,0 1.3512,0 2.0268,0c0.1502,0 0.3754,0 0.5255,0l0.5255,0.0752c0.3753,0.0752 0.7507,0.0752 1.126,0.1504c0.3753,0 0.7507,0.1503 1.126,0.2255l1.126,0.3007c0.3754,0.1504 0.6756,0.3007 1.051,0.4511c0.3753,0.1504 0.7506,0.2255 1.0509,0.4511c0.6005,0.3759 1.2761,0.7518 1.8016,1.2029c0.6006,0.451 1.051,0.9773 1.5014,1.4284c0.3753,0.4511 0.8257,0.9773 1.126,1.4284c0.3002,0.4511 0.5254,0.9773 0.7506,1.3532c0.1502,0.3759 0.3003,0.7518 0.4504,1.0526c0.2252,0.6014 0.3003,0.9773 0.3003,0.9773c0,0 -0.0751,-0.3759 -0.2252,-1.1277z" fill="#7d9950"/><path d="M295.50551,156.0552c-0.2252,-0.3007 -0.4504,-0.7518 -0.7507,-1.1277c-0.1501,-0.2255 -0.3753,-0.451 -0.5255,-0.6766c-0.1501,-0.2255 -0.3753,-0.4511 -0.6005,-0.6766c-0.1501,-0.2256 -0.4504,-0.4511 -0.6756,-0.6766c-0.3003,-0.2256 -0.5255,-0.4511 -0.8258,-0.6767c-0.3002,-0.2255 -0.6005,-0.451 -0.9008,-0.6766c-0.3002,-0.2255 -0.6005,-0.3759 -0.9758,-0.6014c-0.1501,-0.0752 -0.3754,-0.2256 -0.5255,-0.3007c-0.1501,-0.0752 -0.3003,-0.1504 -0.5255,-0.2256c-0.3753,-0.1503 -0.7506,-0.3007 -1.126,-0.4511c-0.3753,-0.0751 -0.8257,-0.2255 -1.201,-0.3007l-0.6006,-0.1503c-0.1501,0 -0.3753,-0.0752 -0.6005,-0.0752c-0.8258,-0.0752 -1.6515,-0.2256 -2.4772,-0.2256c-0.9008,0 -1.6515,-0.0751 -2.4772,0.0752c-0.4504,0.0752 -0.8258,0.1504 -1.2011,0.1504c-0.3754,0.0752 -0.7507,0.0752 -1.126,0.1503c-0.7507,0.1504 -1.4263,0.2256 -2.0268,0.3759c-0.6756,0.1504 -1.2011,0.3008 -1.7266,0.4511c-0.4504,0.1504 -0.9008,0.3007 -1.2761,0.3759c-0.7507,0.1504 -1.126,0.3007 -1.126,0.3007c0,0 0.4504,-0.1503 1.126,-0.3759c0.3753,-0.1503 0.7507,-0.3007 1.2761,-0.451c0.4504,-0.1504 1.051,-0.3759 1.6515,-0.5263c0.6005,-0.1504 1.2761,-0.3007 2.0268,-0.4511c0.7507,-0.1503 1.5013,-0.2255 2.3271,-0.3007c0.7507,-0.1504 1.6515,-0.0752 2.4772,-0.0752c0.8257,-0.0752 1.7265,0.1504 2.5523,0.2256c0.2252,0 0.4504,0 0.6756,0.0751l0.6005,0.1504c0.4504,0.1504 0.9008,0.2255 1.2762,0.3759c0.4504,0.2255 0.8257,0.3759 1.201,0.5263c0.2252,0.0751 0.3754,0.1503 0.6006,0.2255c0.1501,0.0752 0.3753,0.2255 0.5254,0.3007c0.3754,0.1504 0.7507,0.3759 1.051,0.6015c0.3002,0.2255 0.6005,0.451 0.9008,0.6766c0.3002,0.2255 0.6005,0.5262 0.8257,0.7518c0.2252,0.3007 0.4504,0.5262 0.6756,0.7518c0.2252,0.3007 0.3754,0.5262 0.6006,0.7518c0.1501,0.2255 0.3002,0.4511 0.4504,0.6766c0.3002,0.4511 0.5254,0.9022 0.6756,1.2029c0.3002,0.6766 0.4504,1.0525 0.4504,1.0525c0,0 -0.1502,-0.4511 -0.6756,-1.2029z" fill="#7d9950"/><path d="M319.45191,99.2193c-0.9008,0.2255 -2.177,0.6014 -3.6783,1.0525c-0.7507,0.2255 -1.5014,0.5262 -2.3271,0.9021c-0.8257,0.3759 -1.5764,0.9022 -2.4021,1.4285c-1.5765,1.0525 -3.1529,2.4057 -4.6542,3.9093c-1.5013,1.4284 -2.9276,3.0072 -4.2788,4.4356c-1.2762,1.4284 -2.5523,2.8569 -3.6032,3.9846c-2.1019,2.3305 -3.5282,3.9093 -3.5282,3.9093c0,0 1.2761,-1.654 3.303,-4.0597c1.0509,-1.2029 2.1769,-2.6313 3.5281,-4.0597c1.2761,-1.5036 2.7024,-3.0072 4.2038,-4.5108c1.5764,-1.4284 3.1528,-2.7817 4.8042,-3.9094c0.8258,-0.5262 1.6515,-1.0525 2.4773,-1.4284c0.8257,-0.3759 1.6514,-0.6014 2.4021,-0.827c1.5013,-0.451 2.7775,-0.6766 3.6783,-0.8269c0.9008,-0.1504 1.4262,-0.2256 1.4262,-0.2256c0,0 -0.5254,0.0752 -1.3512,0.2256z" fill="#519b3d"/><path d="M246.71191,127.4117c0.9759,-0.9022 2.4021,-2.2554 4.1287,-3.8342c1.7265,-1.5787 3.7534,-3.3831 5.9303,-5.3377c2.1769,-1.9547 4.504,-3.9846 6.8311,-6.0144c2.3271,-2.0299 4.7292,-4.0597 6.9812,-5.8641c2.252,-1.8043 4.429,-3.4582 6.3057,-4.8867c0.9008,-0.6766 1.8016,-1.3532 2.5522,-1.8794c0.7507,-0.5263 1.4263,-0.9774 2.0268,-1.3533c1.1261,-0.7518 1.8017,-1.1277 1.8017,-1.1277c0,0 -0.6756,0.4511 -1.8017,1.2029c-0.5254,0.3759 -1.201,0.9021 -1.9517,1.4284c-0.7507,0.6014 -1.5764,1.2781 -2.4772,1.9547c-1.8016,1.4284 -3.9035,3.1575 -6.1555,5.037c-2.252,1.8044 -4.6542,3.8342 -6.9812,5.8641c-2.4022,1.9546 -4.7293,4.0597 -6.9062,5.9392c-2.1769,1.9547 -4.2788,3.759 -6.0054,5.2626c-3.5281,3.0823 -5.8552,5.1122 -5.8552,5.1122c0,0 0.6005,-0.5263 1.5764,-1.5036z" fill="#519b3d"/></g><g><path d="M417.71461,97.866c1.126,-1.3532 5.1046,2.1802 8.1072,2.7065c3.0778,0.5262 5.3298,5.7888 3.2279,7.2173c-7.1314,4.6611 -12.4611,-8.5705 -11.3351,-9.9238z" fill="#69b229"/><g><g><path d="M427.17301,106.5869c0,0 -2.4021,-7.8187 -9.008,-11.4274c-3.9035,-2.1802 -4.9544,-7.5931 -4.9544,-7.5931c3.8284,5.1122 7.0563,3.9845 11.7855,6.3903c4.7292,2.4057 8.5576,10.45 8.5576,10.45c-3.378,-0.9774 -6.3807,2.1802 -6.3807,2.1802z" fill="#f1f2dc"/><path d="M426.72261,107.3387c-1.126,-0.827 -0.8257,-3.1576 -0.8257,-3.1576c1.5013,-2.7064 6.3807,-2.105 6.3807,-2.105c1.5764,0.5263 1.9517,3.0072 1.9517,3.0072" fill="#7cbf2e"/><path d="M433.32851,102.9783c-0.075,-0.1504 -0.1501,-0.2256 -0.3002,-0.3759c-0.1502,-0.0752 -0.3003,-0.2256 -0.5255,-0.3008c-0.2252,-0.0752 -0.4504,-0.1503 -0.7507,-0.1503c-0.2252,0 -0.5254,0 -0.8257,0c-0.3003,0.0751 -0.6006,0.0751 -0.9008,0.1503c-0.3754,0.0752 -0.6756,0.1504 -0.9759,0.2256c-0.3003,0.0752 -0.6005,0.2255 -0.9008,0.3007c-0.3003,0.1504 -0.5255,0.2255 -0.8257,0.3759c-0.5255,0.3007 -0.9759,0.6014 -1.2762,0.9773c-0.3002,0.3759 -0.3753,0.7518 -0.3753,1.0525c0,0.3008 0.0751,0.4511 0.0751,0.4511c0,0 -0.0751,-0.1503 -0.1502,-0.4511c-0.075,-0.3007 -0.075,-0.7518 0.2252,-1.2028c0.2252,-0.4511 0.6756,-0.9022 1.2762,-1.2029c0.3002,-0.2255 0.6005,-0.3007 0.9008,-0.4511c0.3002,-0.0752 0.6756,-0.2255 0.9758,-0.3007c0.3003,-0.0752 0.6756,-0.1504 0.9759,-0.2255c0.3003,-0.0752 0.6756,-0.0752 0.9759,-0.0752c0.3002,0 0.6005,0 0.9008,0.0752c0.3002,0.0751 0.6005,0.1503 0.8257,0.3007c0.2252,0.1503 0.3754,0.3007 0.5255,0.4511c0.1501,0.1503 0.2252,0.3007 0.3003,0.451c0.075,0.3008 0.075,0.4511 0.075,0.4511c0,0 0,-0.2255 -0.2252,-0.5262z" fill="#519b3d"/><path d="M423.72001,100.2718c-0.6006,-0.6766 -1.5014,-1.654 -2.4022,-2.481c-0.4504,-0.3759 -0.9008,-0.827 -1.3512,-1.2028c-0.4504,-0.3759 -0.9008,-0.6767 -1.2761,-0.9774c-0.4504,-0.3007 -0.7507,-0.5262 -0.9759,-0.6766c-0.2252,-0.1504 -0.3753,-0.2255 -0.3753,-0.2255c0,0 0.1501,0.0751 0.3753,0.1503c0.3003,0.1504 0.6005,0.3007 1.0509,0.5263c0.2252,0.0752 0.4504,0.2255 0.6756,0.3759c0.3003,0.1503 0.5255,0.3759 0.7507,0.5262c0.4504,0.3759 0.9759,0.7518 1.4263,1.2029c0.9008,0.9022 1.7265,1.8795 2.252,2.7065c0.5255,0.7518 0.8257,1.3532 0.8257,1.3532c0,0 -0.3753,-0.5262 -0.9758,-1.278z" fill="#c9bd9b"/><path d="M420.41701,92.5283c-0.5255,-0.0752 -1.0509,-0.2256 -1.6515,-0.4511c-0.6005,-0.2256 -1.201,-0.5263 -1.8016,-0.827c-0.2252,-0.1504 -0.5254,-0.3007 -0.8257,-0.5263c-0.2252,-0.2255 -0.5255,-0.3759 -0.7507,-0.6014c-0.2252,-0.2255 -0.4504,-0.3759 -0.6756,-0.6014c-0.1501,-0.2256 -0.3753,-0.3759 -0.5255,-0.6015c-0.3002,-0.3759 -0.5254,-0.7518 -0.6756,-0.9773c-0.1501,-0.2256 -0.2252,-0.3759 -0.2252,-0.3759c0,0 0.0751,0.1503 0.3003,0.3759c0.1501,0.0752 0.2252,0.2255 0.3754,0.3759c0.1501,0.1503 0.3002,0.3007 0.4504,0.4511c0.1501,0.2255 0.3753,0.3759 0.6005,0.5262c0.1501,0.1504 0.4504,0.3759 0.6756,0.5263c0.2252,0.2255 0.5255,0.3759 0.7507,0.5262c0.2252,0.1504 0.5254,0.3008 0.8257,0.4511c1.126,0.6015 2.3271,1.0525 3.2279,1.4284c0.9759,0.3759 1.5764,0.5263 1.5764,0.5263c0,0 -0.6756,-0.0752 -1.6515,-0.2255z" fill="#c9bd9b"/></g><g><g><g fill="#d1cd9b"><path d="M441.58591,125.006c0.6756,0.2255 1.0509,0.9021 0.9008,1.5787c-0.1501,0.6767 -1.5764,3.3831 -2.252,3.2328c-0.6756,-0.2256 -0.3753,-3.2328 -0.2252,-3.9094c0.2252,-0.7518 0.9008,-1.1277 1.5764,-0.9022z"/><path d="M443.82811,128.5947c-0.6925,-0.1312 -1.1474,-0.7997 -1.016,-1.4931c0.1313,-0.6935 0.7992,-1.1493 1.4917,-1.0182c0.6925,0.1312 1.1474,0.7997 1.016,1.4932c-0.1313,0.6934 -0.7992,1.1493 -1.4917,1.0181z"/><path d="M438.04301,126.705c-0.6925,-0.1311 -1.1474,-0.7996 -1.016,-1.4931c0.1313,-0.6935 0.7992,-1.1493 1.4917,-1.0181c0.6925,0.1311 1.1474,0.7996 1.016,1.4931c-0.1313,0.6935 -0.7992,1.1493 -1.4917,1.0181z"/><path d="M435.12291,125.7291c-0.6925,-0.1312 -1.1474,-0.7997 -1.016,-1.4931c0.1313,-0.6935 0.7992,-1.1493 1.4917,-1.0182c0.6925,0.1312 1.1474,0.7997 1.016,1.4932c-0.1313,0.6934 -0.7992,1.1493 -1.4917,1.0181z"/><path d="M432.19561,124.7571c-0.6925,-0.1311 -1.1474,-0.7996 -1.0161,-1.4931c0.1314,-0.6935 0.7992,-1.1493 1.4917,-1.0181c0.6925,0.1312 1.1474,0.7996 1.0161,1.4931c-0.1314,0.6935 -0.7992,1.1493 -1.4917,1.0181z"/></g><g fill="#d1cd9b"><path d="M437.18641,139.598c-0.5483,-0.066 -0.9393,-0.564 -0.8733,-1.1123c0.066,-0.5484 0.564,-0.9394 1.1123,-0.8734c0.5484,0.066 0.9394,0.5641 0.8734,1.1124c-0.066,0.5483 -0.564,0.9393 -1.1124,0.8733z"/><path d="M436.05551,137.9451c-0.5483,-0.066 -0.9393,-0.564 -0.8733,-1.1123c0.066,-0.5484 0.564,-0.9394 1.1124,-0.8734c0.5483,0.066 0.9393,0.564 0.8733,1.1124c-0.066,0.5483 -0.564,0.9393 -1.1124,0.8733z"/><path d="M436.18111,133.802c0.3003,0.3759 -0.6006,1.7291 -0.9008,2.0299c-0.3003,0.3007 -0.7507,0.2255 -1.051,-0.0752c-0.3002,-0.3007 -0.2252,-0.7518 0.0751,-1.0525c0.3753,-0.3008 1.5764,-1.2781 1.8767,-0.9022z"/><path d="M433.65751,134.4141c-0.5483,-0.066 -0.9393,-0.564 -0.8733,-1.1124c0.066,-0.5483 0.564,-0.9393 1.1123,-0.8733c0.5484,0.066 0.9393,0.564 0.8734,1.1123c-0.066,0.5484 -0.5641,0.9394 -1.1124,0.8734z"/><path d="M432.60661,132.5337c-0.5483,-0.066 -0.9393,-0.564 -0.8733,-1.1124c0.066,-0.5483 0.564,-0.9393 1.1123,-0.8733c0.5483,0.066 0.9393,0.564 0.8733,1.1124c-0.066,0.5483 -0.564,0.9393 -1.1123,0.8733z"/><path d="M431.55541,130.5762c-0.5483,-0.066 -0.9393,-0.564 -0.8733,-1.1124c0.066,-0.5483 0.564,-0.9393 1.1123,-0.8733c0.5484,0.066 0.9394,0.564 0.8734,1.1123c-0.066,0.5484 -0.564,0.9394 -1.1124,0.8734z"/></g><path d="M435.95591,125.3067c0,0 -5.1046,-0.9022 -4.2788,6.9165l-3.5282,-8.9464z" fill="#c77866"/><path d="M422.89421,127.4117c-0.7507,-4.586 6.3807,-4.8115 8.7829,2.0299c1.3512,3.9093 5.705,8.1194 6.3807,10.6755c0.6005,2.5561 -0.5255,2.0299 -2.2521,1.8795c-2.327,-0.1504 -12.2359,-9.9237 -12.9115,-14.5849z" fill="#d37f6c"/><path d="M426.94781,126.284c0,0 2.3271,1.3532 4.2038,4.5108c1.8767,3.1575 7.0563,9.9237 9.0831,11.3522c2.6273,1.8043 2.4772,3.0071 2.3271,3.2327c-0.3003,0.3007 -1.8767,-1.4284 -1.8767,-1.4284c0,0 1.126,1.9546 0.5255,2.1802c-0.5255,0.2255 -2.7024,-2.8568 -3.4531,-3.5335c-0.7507,-0.6766 -5.7051,-6.6158 -6.9812,-9.0967c-1.3513,-2.481 -4.8794,-6.1648 -4.8794,-6.1648" fill="#e89182"/><path d="M430.10071,125.5322c0,0 -5.1046,-0.9022 -4.2789,6.9166l-3.5281,-8.9464z" fill="#e89182"/><g fill="#f1f2dc"><path d="M438.95861,125.8329c0.7506,0 1.2761,0.6766 1.201,1.3533c-0.075,0.7518 -0.9758,3.6838 -1.6514,3.6086c-0.6756,-0.0752 -0.9759,-3.0824 -0.9008,-3.759c0,-0.7518 0.6005,-1.2781 1.3512,-1.2029z"/><path d="M441.81111,128.9905c-0.7048,0 -1.2761,-0.5722 -1.2761,-1.2781c0,-0.7058 0.5713,-1.278 1.2761,-1.278c0.7048,0 1.2761,0.5722 1.2761,1.278c0,0.7059 -0.5713,1.2781 -1.2761,1.2781z"/><path d="M435.80571,128.1635c-0.7047,0 -1.2761,-0.5722 -1.2761,-1.2781c0,-0.7058 0.5714,-1.278 1.2761,-1.278c0.7048,0 1.2762,0.5722 1.2762,1.278c0,0.7059 -0.5714,1.2781 -1.2762,1.2781z"/><path d="M432.72801,127.7876c-0.7048,0 -1.2761,-0.5722 -1.2761,-1.2781c0,-0.7058 0.5713,-1.278 1.2761,-1.278c0.7048,0 1.2761,0.5722 1.2761,1.278c0,0.7059 -0.5713,1.2781 -1.2761,1.2781z"/><path d="M429.65031,127.4117c-0.7048,0 -1.2762,-0.5722 -1.2762,-1.2781c0,-0.7058 0.5714,-1.278 1.2762,-1.278c0.7047,0 1.2761,0.5722 1.2761,1.278c0,0.7059 -0.5714,1.2781 -1.2761,1.2781z"/></g><g fill="#f1f2dc"><path d="M433.02831,140.5157c-0.5523,0 -1,-0.4478 -1,-1c0,-0.5523 0.4477,-1 1,-1c0.5522,0 1,0.4477 1,1c0,0.5522 -0.4478,1 -1,1z"/><path d="M432.50281,136.8092c0.3753,0.2255 -0.3003,1.7291 -0.5255,2.0298c-0.2252,0.3008 -0.7506,0.3759 -1.0509,0.1504c-0.3003,-0.2255 -0.3754,-0.7518 -0.1501,-1.0525c0.2251,-0.3007 1.3512,-1.3533 1.7265,-1.1277z"/><path d="M429.80041,137.8844c-0.5523,0 -1,-0.4478 -1,-1c0,-0.5523 0.4477,-1 1,-1c0.5523,0 1,0.4477 1,1c0,0.5522 -0.4477,1 -1,1z"/><path d="M428.52421,136.2304c-0.5522,0 -1,-0.4477 -1,-1c0,-0.5523 0.4478,-1 1,-1c0.5523,0 1,0.4477 1,1c0,0.5523 -0.4477,1 -1,1z"/><path d="M427.24811,134.4261c-0.5523,0 -1,-0.4477 -1,-1c0,-0.5523 0.4477,-1 1,-1c0.5523,0 1,0.4477 1,1c0,0.5523 -0.4477,1 -1,1z"/><path d="M426.12211,132.3211c-0.5523,0 -1,-0.4478 -1,-1c0,-0.5523 0.4477,-1 1,-1c0.5523,0 1,0.4477 1,1c0,0.5522 -0.4477,1 -1,1z"/></g></g><g><g><path d="M425.52161,101.4747c6.0053,0.9773 9.5335,2.0298 11.7104,8.2697c2.177,6.24 4.5791,8.4953 9.5335,11.3522c4.8043,2.7816 3.303,6.4655 2.177,8.1194c0,0 -3.6033,0.2256 -6.4558,-1.5036c-2.252,-1.3532 -6.3807,-0.9773 -9.7587,-1.3532c-3.0027,-0.3007 -8.3324,-1.1277 -8.3324,-1.1277c1.7265,11.6528 9.4584,15.4118 12.5361,16.9906c0,0 -4.7292,0.0752 -9.6085,-6.3903c-5.555,-7.4428 -17.3405,-7.7435 -16.5148,-17.3665c0.9759,-10.45 6.0804,-18.4943 14.7132,-16.9907z" fill="#7cbf2e"/><path d="M445.86471,129.0657c-0.6756,-0.0752 -1.5764,-0.2256 -2.6273,-0.6767c-0.5255,-0.2255 -1.051,-0.5262 -1.6515,-0.7518c-0.6005,-0.2255 -1.2011,-0.3759 -1.8767,-0.5262c-1.3512,-0.3007 -2.7775,-0.3759 -4.2788,-0.4511c-1.5013,-0.0752 -3.0027,-0.1504 -4.3539,-0.3007c-1.3512,-0.1504 -2.6273,-0.3007 -3.7533,-0.4511c-1.126,-0.1504 -2.0268,-0.3007 -2.6274,-0.5263c-0.6005,-0.2255 -0.9008,-0.451 -0.9008,-0.451c0,0 0.3754,0.2255 0.9759,0.3759c0.6005,0.1503 1.5013,0.3007 2.6273,0.3759c2.177,0.2255 5.1797,0.3759 8.1073,0.5262c1.5013,0.0752 3.0027,0.0752 4.3539,0.3759c0.6756,0.1504 1.3512,0.3007 1.9517,0.5263c0.6756,0.2255 1.126,0.5262 1.6515,0.7518c0.5254,0.2255 0.9758,0.3759 1.4262,0.5262c0.4504,0.1504 0.8258,0.3008 1.126,0.3759c0.6006,0.1504 0.9759,0.3008 0.9759,0.3008c0,0 -0.3753,0 -1.126,0z" fill="#519b3d"/><path d="M434.07921,110.7218c-0.3003,-0.9022 -0.8257,-2.0299 -1.5013,-3.0824c-0.1502,-0.2255 -0.3754,-0.5263 -0.5255,-0.7518c-0.1501,-0.2255 -0.3003,-0.4511 -0.5255,-0.6766c-0.2252,-0.2256 -0.3753,-0.4511 -0.6005,-0.6015c-0.1501,-0.2255 -0.3754,-0.3759 -0.5255,-0.5262c-0.2252,-0.1504 -0.3753,-0.2256 -0.5255,-0.3759c-0.1501,-0.0752 -0.3002,-0.1504 -0.4504,-0.2256c-0.2252,-0.1503 -0.3753,-0.2255 -0.3753,-0.2255c0,0 0.1501,0.0752 0.4504,0.1504c0.3003,0.1503 0.6005,0.3007 1.0509,0.5262c0.1502,0.1504 0.3754,0.3007 0.6006,0.4511c0.2252,0.1504 0.4504,0.3759 0.6756,0.6014c0.3753,0.4511 0.7507,0.9774 1.126,1.5036c0.1501,0.3008 0.3003,0.5263 0.4504,0.827c0.1501,0.3007 0.3003,0.5263 0.3753,0.827c0.2252,0.6014 0.3754,1.1277 0.5255,1.5788c0.2252,0.9773 0.3003,1.5788 0.3003,1.5788c0,0 -0.2252,-0.6015 -0.5255,-1.5788z" fill="#519b3d"/><path d="M421.24271,130.5692c-0.9008,-0.451 -2.1769,-1.2028 -3.3029,-1.9546c-0.6006,-0.3759 -1.126,-0.7518 -1.6515,-1.2029c-0.5254,-0.3759 -0.9758,-0.827 -1.3512,-1.2029c-0.7507,-0.7518 -1.126,-1.3532 -1.126,-1.3532c0,0 0.1501,0.0752 0.3753,0.3007c0.2252,0.2255 0.6006,0.5263 0.9759,0.827c0.4504,0.3007 0.9008,0.6766 1.4263,1.0525c0.5254,0.3759 1.0509,0.827 1.6515,1.2029c1.126,0.7518 2.252,1.5036 3.1528,2.105c0.8257,0.6015 1.4262,0.9774 1.4262,0.9774c0,0 -0.6756,-0.2256 -1.5764,-0.7519z" fill="#519b3d"/><path d="M449.61811,127.5621c0.1501,-0.5263 0.2252,-1.1277 0.2252,-1.8795c0,-0.7518 -0.1502,-1.5036 -0.6756,-2.2554c-0.2252,-0.3759 -0.5255,-0.6767 -0.9008,-0.9774c-0.3754,-0.3007 -0.7507,-0.6014 -1.2011,-0.9021c-0.8257,-0.6015 -1.7265,-1.1277 -2.7024,-1.7292c-0.9008,-0.6014 -1.8767,-1.3532 -2.7024,-2.1802c-0.9008,-0.827 -1.6515,-1.7291 -2.4022,-2.7065c-0.6756,-1.0525 -1.0509,-2.1802 -1.5013,-3.3079c-0.3753,-1.0525 -0.7507,-2.1802 -1.2761,-3.1575c-0.5255,-0.9774 -1.051,-1.9547 -1.7266,-2.7065c-0.6756,-0.827 -1.3512,-1.4284 -2.1019,-1.9547c-1.5013,-1.0525 -2.9276,-1.5036 -3.9034,-1.8043c-0.5255,-0.1504 -0.9008,-0.2255 -1.2011,-0.3007c-0.3003,-0.0752 -0.4504,-0.0752 -0.4504,-0.0752c0,0 0.1501,0 0.4504,0.0752c0.3003,0 0.6756,0.0752 1.2011,0.2255c1.0509,0.2256 2.5522,0.6766 4.0536,1.654c0.8257,0.5262 1.5764,1.2029 2.252,1.9547c0.6756,0.7518 1.2761,1.6539 1.8016,2.7064c0.5255,1.0526 0.9759,2.1051 1.3512,3.2328c0.4504,1.0525 0.8257,2.1802 1.5013,3.1575c0.7507,0.9774 1.5014,1.8795 2.3271,2.7065c0.8258,0.827 1.7266,1.5788 2.6274,2.1802c0.9008,0.6014 1.8767,1.2029 2.7024,1.8043c0.4504,0.3007 0.8257,0.6766 1.2011,0.9774c0.3753,0.3007 0.7506,0.6766 0.9758,1.0525c0.5255,0.827 0.6756,1.6539 0.6756,2.4057c0,0.7518 -0.2252,1.3533 -0.3753,1.8795c-0.3754,1.0526 -0.7507,1.5036 -0.7507,1.5036c0,0 0.3003,-0.451 0.5255,-1.5787z" fill="#519b3d"/></g><path d="M430.32591,117.1121c-0.1502,-0.3759 -0.3003,-0.7518 -0.5255,-1.0526c-0.1501,-0.1503 -0.3003,-0.3007 -0.4504,-0.451c-0.1501,-0.0752 -0.3003,-0.2256 -0.4504,-0.3008c-0.1501,-0.1503 -0.3003,-0.1503 -0.3754,-0.2255c-0.075,-0.0752 -0.1501,-0.0752 -0.1501,-0.0752c0,0 0.0751,0 0.1501,0c0.1502,0 0.3003,-0.0752 0.4504,0c0.1502,0 0.3754,0.1504 0.6006,0.2256c0.0751,0.0751 0.2252,0.1503 0.3003,0.2255c0.075,0.0752 0.1501,0.2255 0.2252,0.3007c0.3002,0.3759 0.3753,0.9022 0.3753,1.2781c-0.0751,0.3759 -0.1501,0.6014 -0.1501,0.6014c0,0 -0.0751,-0.2255 0,-0.5262z" fill="#519b3d"/><path d="M425.85281,119.1451c-0.1464,-0.8174 0.1755,-1.5589 0.7191,-1.6564c0.5437,-0.0974 1.1031,0.4862 1.2496,1.3036c0.1465,0.8173 -0.1755,1.5589 -0.7191,1.6563c-0.5436,0.0974 -1.1031,-0.4862 -1.2496,-1.3035z" fill="#283f1f"/><path d="M444.96391,125.2315c0.0751,-0.1504 0.0751,-0.3759 0,-0.5263c0,-0.1503 -0.1501,-0.3759 -0.2252,-0.5262c-0.075,-0.0752 -0.1501,-0.1504 -0.1501,-0.2256c-0.0751,-0.0752 -0.0751,-0.0752 -0.0751,-0.0752c0,0 0,0 0.0751,0c0,0 0.1501,0 0.2252,0.0752c0.1501,0.0752 0.4504,0.3007 0.5255,0.6015c0.075,0.1503 0.075,0.3007 0,0.451c-0.0751,0.1504 -0.1502,0.2256 -0.2252,0.3008c-0.1502,0.1503 -0.3003,0.1503 -0.3003,0.1503c0,0 0.0751,-0.1503 0.1501,-0.2255z" fill="#34662d"/><path d="M428.37411,118.4653c-0.2252,-0.1504 -0.5255,-0.3759 -0.8257,-0.5263c-0.1502,-0.0751 -0.3754,-0.1503 -0.5255,-0.2255c-0.1501,-0.0752 -0.3753,-0.0752 -0.5255,-0.1504c-0.1501,0 -0.3753,-0.0751 -0.5254,-0.0751c-0.1502,0 -0.3754,0 -0.5255,0c-0.2252,0 -0.3753,0 -0.5255,0c-0.1501,0.0751 -0.3002,0.0751 -0.4504,0.0751c-0.2252,0 -0.5254,0.0752 -0.6756,0.0752c-0.2252,0 -0.3002,0 -0.3002,0c0,0 0.075,-0.0752 0.2252,-0.1503c0.1501,-0.0752 0.3753,-0.2256 0.6756,-0.3008c0.3002,-0.1503 0.6756,-0.2255 1.0509,-0.2255c0.2252,0 0.3753,0 0.6005,0c0.2252,0 0.3754,0.0752 0.6006,0.0752c0.3753,0.0752 0.8257,0.2255 1.126,0.4511c0.3753,0.1503 0.6005,0.451 0.8257,0.6766c0.4504,0.5262 0.5255,0.9021 0.5255,0.9021c0,0 -0.3003,-0.3007 -0.7507,-0.6014z" fill="#519b3d"/></g></g><g><path d="M419.21591,107.5642c0,0 -2.8525,-7.6683 -9.6836,-10.9011c-4.0536,-1.9546 -5.4048,-7.2924 -5.4048,-7.2924c4.1286,4.9619 7.2815,3.6086 12.1608,5.7137c4.8794,2.105 9.1582,9.9237 9.1582,9.9237c-3.4531,-0.827 -6.2306,2.5561 -6.2306,2.5561z" fill="#f1f2dc"/><path d="M418.61541,108.316c-1.126,-0.7518 -0.9759,-3.0823 -0.9759,-3.0823c1.4263,-2.7817 6.3057,-2.481 6.3057,-2.481c1.6514,0.4511 2.1769,2.932 2.1769,2.932" fill="#7cbf2e"/><path d="M425.07121,103.8052c-0.0751,-0.1503 -0.2252,-0.2255 -0.3754,-0.3759c-0.1501,-0.1503 -0.3753,-0.2255 -0.6005,-0.3007c-0.2252,-0.0752 -0.4504,-0.1503 -0.7507,-0.1503c-0.2252,-0.0752 -0.5255,0 -0.8257,0c-0.3003,0 -0.6006,0.0751 -0.9008,0.1503c-0.3003,0.0752 -0.6006,0.2256 -0.9008,0.3007c-0.3003,0.0752 -0.6006,0.1504 -0.9008,0.3008c-0.3003,0.0751 -0.6006,0.2255 -0.8258,0.3759c-0.5254,0.3007 -0.9758,0.6766 -1.201,1.0525c-0.3003,0.3759 -0.3003,0.7518 -0.3003,1.0525c0,0.3007 0.0751,0.4511 0.0751,0.4511c0,0 -0.0751,-0.1504 -0.1502,-0.4511c-0.075,-0.2255 -0.075,-0.7518 0.1502,-1.2029c0.2252,-0.5262 0.6756,-0.9021 1.201,-1.278c0.3003,-0.1504 0.6006,-0.3008 0.9008,-0.4511c0.3003,-0.1504 0.6756,-0.3007 0.9759,-0.3759c0.3003,-0.1504 0.6756,-0.2256 0.9759,-0.3007c0.3002,-0.0752 0.6756,-0.1504 0.9758,-0.1504c0.3003,-0.0752 0.6006,-0.0752 0.9008,0c0.3003,0 0.6006,0.1504 0.8258,0.2255c0.2252,0.1504 0.4504,0.3008 0.6005,0.4511c0.1501,0.1504 0.2252,0.3007 0.3003,0.4511c0.1501,0.3007 0.1501,0.4511 0.1501,0.4511c0,0 0,-0.1504 -0.3003,-0.2256z" fill="#519b3d"/><path d="M415.38751,101.3995c-0.6756,-0.6766 -1.5764,-1.5036 -2.5523,-2.3306c-0.4504,-0.3759 -0.9758,-0.7518 -1.4262,-1.1277c-0.5255,-0.3759 -0.9759,-0.6766 -1.3512,-0.9022c-0.3754,-0.2255 -0.7507,-0.451 -0.9759,-0.6014c-0.2252,-0.1504 -0.3754,-0.2255 -0.3754,-0.2255c0,0 0.1502,0.0751 0.4504,0.1503c0.2252,0.0752 0.6006,0.2256 1.051,0.4511c0.2252,0.1504 0.4504,0.2255 0.6756,0.3759c0.2252,0.1504 0.5255,0.3007 0.7507,0.4511c0.5254,0.3007 0.9758,0.7518 1.5013,1.1277c0.9759,0.827 1.8016,1.8043 2.4021,2.5561c0.6006,0.7518 0.9008,1.3532 0.9008,1.3532c0,0 -0.4504,-0.5262 -1.0509,-1.278z" fill="#c9bd9b"/><path d="M411.48401,93.8063c-0.4504,-0.0752 -1.0509,-0.2255 -1.6514,-0.3759c-0.6006,-0.1503 -1.2011,-0.3759 -1.8016,-0.6766c-0.3003,-0.1504 -0.6006,-0.3007 -0.9008,-0.4511c-0.3003,-0.1504 -0.6006,-0.3007 -0.8258,-0.5262c-0.2252,-0.1504 -0.4504,-0.3008 -0.6756,-0.5263c-0.2252,-0.1504 -0.4504,-0.3007 -0.6005,-0.5263c-0.3754,-0.3759 -0.6006,-0.7518 -0.7507,-0.9773c-0.1501,-0.2255 -0.2252,-0.3759 -0.2252,-0.3759c0,0 0.0751,0.0752 0.3003,0.3007c0.1501,0.0752 0.2252,0.2256 0.3753,0.3759c0.1501,0.1504 0.3754,0.3007 0.5255,0.4511c0.1501,0.1504 0.3753,0.3007 0.6005,0.4511c0.2252,0.1503 0.5255,0.3007 0.7507,0.4511c0.3003,0.1503 0.5255,0.3007 0.8257,0.451c0.2252,0.1504 0.5255,0.3008 0.8258,0.4511c1.201,0.6015 2.4772,0.9774 3.378,1.2781c0.9008,0.3007 1.5764,0.4511 1.5764,0.4511c0,0 -0.6756,0 -1.7265,-0.2256z" fill="#c9bd9b"/></g></g><g><path d="M404.50281,107.5642c-1.8016,-1.5788 -2.1019,-4.1349 -0.8257,-3.5334c1.2761,0.6014 3.6032,0.0752 8.0321,-0.4511c4.429,-0.5263 6.1555,3.6086 3.7534,6.3903c-2.9276,3.3831 -9.0831,-0.827 -10.9598,-2.4058z" fill="#7cbf2e"/><path d="M415.23741,109.4437c-0.3754,0 -0.9008,-0.0752 -1.5014,-0.3759c-0.6005,-0.3759 -1.126,-0.9021 -1.6514,-1.5036l-0.0751,-0.0752l-0.0751,-0.0751c-0.075,-0.0752 -0.1501,-0.1504 -0.2252,-0.1504c-0.1501,-0.0752 -0.3002,-0.0752 -0.5254,-0.1504c-0.3754,-0.0751 -0.7507,-0.0751 -1.2011,-0.0751c-0.8257,0 -1.6515,0 -2.4772,-0.0752c-0.3754,0 -0.7507,-0.0752 -1.126,-0.1504c-0.3754,-0.0752 -0.6756,-0.1503 -0.9759,-0.3007c-0.3003,-0.0752 -0.5255,-0.2255 -0.7507,-0.3759c-0.2252,-0.1504 -0.3753,-0.2255 -0.5254,-0.3759c-0.2252,-0.3007 -0.3754,-0.4511 -0.3754,-0.4511c0,0 0.1502,0.1504 0.4504,0.3759c0.1502,0.0752 0.3754,0.1504 0.6006,0.3007c0.3002,0.0752 0.5254,0.2256 0.8257,0.3008c0.3003,0.0751 0.6005,0.1503 0.9759,0.2255c0.3753,0 0.7506,0.0752 1.126,0.0752c0.7507,0 1.6515,0 2.4772,0c0.3753,0 0.8257,0.0752 1.2761,0.1503c0.2252,0 0.4504,0.0752 0.6756,0.2256c0.0751,0.0752 0.1502,0.1503 0.2252,0.2255l0.0751,0.0752c0.1501,0.0752 0.0751,0.0752 0.1501,0.1504c0.4504,0.6014 0.9008,1.2028 1.4263,1.5036c0.4504,0.3007 0.9759,0.451 1.3512,0.5262c0.3753,0.0752 0.6005,0.0752 0.6005,0.0752c0,0 -0.1501,0 -0.7506,-0.0752z" fill="#519b3d"/><path d="M413.66101,111.3232c-0.6006,0.1504 -1.4263,0.2255 -2.252,0.0752c-0.2252,-0.0752 -0.3754,-0.0752 -0.6006,-0.1504c-0.2252,0 -0.4504,-0.0752 -0.6005,-0.1503c-0.2252,-0.0752 -0.3754,-0.1504 -0.5255,-0.2256c-0.1501,-0.0752 -0.3003,-0.1503 -0.4504,-0.2255c-0.3003,-0.1504 -0.4504,-0.3759 -0.6005,-0.4511c-0.1502,-0.0752 -0.2252,-0.1504 -0.2252,-0.1504c0,0 0.075,0 0.2252,0.0752c0.1501,0.0752 0.3753,0.2256 0.6756,0.3007c0.5254,0.1504 1.2761,0.3759 2.0268,0.5263c0.3753,0.0752 0.7506,0.1504 1.126,0.1504c0.3003,0 0.6756,0 0.9759,0c0.6005,0 0.9758,-0.0752 0.9758,-0.0752c0,0 -0.3002,0.1503 -0.7506,0.3007z" fill="#519b3d"/><path d="M416.21331,105.9854c-0.1502,-0.3007 -0.3754,-0.6014 -0.7507,-0.9773c-0.3003,-0.3759 -0.7507,-0.6766 -1.3512,-0.9022c-0.3003,-0.0751 -0.6006,-0.1503 -0.9008,-0.2255c-0.3003,0 -0.6756,0 -0.9759,0c-1.2761,0.0752 -2.6273,0.3007 -3.6783,0.3759c-1.0509,0.0752 -1.7265,0 -1.7265,0c0,0 0.6756,-0.0752 1.6515,-0.3007c0.9758,-0.1504 2.252,-0.5263 3.6782,-0.6015c0.3754,0 0.6756,0 1.051,0.0752c0.3002,0.0752 0.6756,0.1504 0.9758,0.3007c0.6006,0.3008 1.1261,0.6767 1.4263,1.1277c0.3003,0.4511 0.5255,0.827 0.6006,1.1277c0.1501,0.3008 0.1501,0.4511 0.1501,0.4511c0,0 -0.0751,-0.1503 -0.1501,-0.4511z" fill="#519b3d"/></g></g></g></g></svg>