<svg version="1.1" xmlns="http://www.w3.org/2000/svg" xmlns:xlink="http://www.w3.org/1999/xlink" width="346.27948" height="15" viewBox="0,0,346.27948,15"><g transform="translate(-66.86025,-172.5)"><g data-paper-data="{&quot;isPaintingLayer&quot;:true}" fill-rule="nonzero" stroke="#000000" stroke-width="2" stroke-linecap="butt" stroke-linejoin="miter" stroke-miterlimit="10" stroke-dasharray="" stroke-dashoffset="0" style="mix-blend-mode: normal"><path d="M71.15159,173.5c26.80864,0 287.17069,0 337.41095,0c5.39468,0 4.65563,13 -2,13c-54.76966,0 -308.94038,0 -335.41095,0c-2.20369,0 -3.30079,-3.27813 -3.29127,-6.5421c0.00944,-3.23591 1.10652,-6.4579 3.29127,-6.4579z" fill="#000000"/><path d="M69.51206,173.5c13.45413,0 144.11895,0 169.33243,0c2.70735,0 2.33651,13 -1.00371,13c-27.48657,0 -155.04426,0 -168.32871,0c-1.10596,0 -1.65657,-3.27813 -1.65177,-6.5421c0.00469,-3.23591 0.55532,-6.4579 1.65177,-6.4579z" fill="#00ff5d"/></g></g></svg>