<svg version="1.1" xmlns="http://www.w3.org/2000/svg" xmlns:xlink="http://www.w3.org/1999/xlink" width="346.27948" height="15" viewBox="0,0,346.27948,15"><g transform="translate(-66.86026,-172.5)"><g data-paper-data="{&quot;isPaintingLayer&quot;:true}" fill-rule="nonzero" stroke="#000000" stroke-width="2" stroke-linecap="butt" stroke-linejoin="miter" stroke-miterlimit="10" stroke-dasharray="" stroke-dashoffset="0" style="mix-blend-mode: normal"><path d="M71.15159,173.5c26.80864,0 287.17069,0 337.41095,0c5.39468,0 4.65563,13 -2,13c-54.76966,0 -308.94038,0 -335.41095,0c-2.20369,0 -3.30079,-3.27813 -3.29127,-6.5421c0.00944,-3.23591 1.10652,-6.4579 3.29127,-6.4579z" fill="#000000"/><path d="M69.73513,173.5c15.27107,0 163.58177,0 192.20025,0c3.07297,0 2.65205,13 -1.13926,13c-31.19855,0 -175.98251,0 -191.06098,0c-1.25532,0 -1.88028,-3.27813 -1.87484,-6.5421c0.00532,-3.23591 0.63031,-6.4579 1.87484,-6.4579z" fill="#00ff5d"/></g></g></svg>