<svg version="1.1" xmlns="http://www.w3.org/2000/svg" xmlns:xlink="http://www.w3.org/1999/xlink" width="819.63903" height="412.40657" viewBox="0,0,819.63903,412.40657"><g transform="translate(95.02973,26.20328)"><g data-paper-data="{&quot;isPaintingLayer&quot;:true}" stroke="none" stroke-miterlimit="10" stroke-dasharray="" stroke-dashoffset="0" style="mix-blend-mode: normal"><path d="M-95.02973,386.20329v-412.40657h819.63903v412.40657z" fill="#000000" fill-rule="nonzero" stroke-width="0" stroke-linecap="butt" stroke-linejoin="miter"/><path d="" data-paper-data="{&quot;origPos&quot;:null}" fill="#000000" fill-rule="nonzero" stroke-width="1" stroke-linecap="butt" stroke-linejoin="miter"/><path d="M433.94355,68.8736v-52.80417h69.16102v52.80417z" data-paper-data="{&quot;origPos&quot;:null}" fill="none" fill-rule="nonzero" stroke-width="0" stroke-linecap="butt" stroke-linejoin="miter"/><path d="M212.67155,328.27654v-166.83777h213.37075v166.83777z" data-paper-data="{&quot;origPos&quot;:null}" fill="none" fill-rule="nonzero" stroke-width="0" stroke-linecap="butt" stroke-linejoin="miter"/><path d="M412.39643,294.30404c0,15.12757 -7.17921,28.11452 -22.30678,29.99875h-114.09783c-15.46749,-1.88417 -22.30678,-14.87118 -22.30678,-30.25515c0,-11.53796 7.43561,-21.79398 17.69159,-25.63995c-0.76925,-1.53841 2.30761,-1.53844 2.30761,-3.33324c0,-5.89721 1.282,-12.05082 7.17921,-12.05082c0.51285,0 1.282,0.25641 1.7948,0.25641c-0.76925,-1.7948 2.0512,-2.30756 2.0512,-4.61516c0,-8.97396 4.10246,-17.94798 13.07642,-17.94798c2.564,0 4.61521,0.5128 7.17921,1.53841v0c0,-15.12757 12.05077,-27.1783 27.1783,-27.1783c14.87117,0 26.66555,11.79438 26.66555,26.92195c9.9996,-4.10246 21.79403,-2.0512 29.74235,5.89721c8.20477,8.20481 7.4356,20.76842 2.82036,30.76799c10.76881,3.84605 21.28117,13.84557 21.02478,25.63994z" data-paper-data="{&quot;origPos&quot;:null}" fill="#a3a3a3" fill-rule="nonzero" stroke-width="1" stroke-linecap="butt" stroke-linejoin="miter"/><path d="M412.65279,288.50796c0,15.12757 -12.30718,27.94755 -27.17831,27.94755h-104.35462c-15.12757,0 -27.4347,-12.81998 -27.4347,-27.94755c0,-11.79442 7.43561,-22.30678 17.94793,-26.15279c-0.76925,-1.53841 -1.282,-3.07676 -1.282,-4.87156c0,-5.89721 4.61516,-10.51241 10.51241,-10.51241c0.51285,0 1.28205,0.25639 1.79485,0.25639c-0.76925,-2.0512 -1.28205,-4.10244 -1.28205,-6.41001c0,-8.97396 7.43565,-16.15318 16.40962,-16.15318c2.564,0 4.61516,0.5128 7.17921,1.53844c0,-15.12757 12.05082,-27.43474 27.17835,-27.43474c14.87117,0 26.6655,12.05076 26.6655,26.92194c9.9996,-4.10246 21.79398,-2.0512 29.74235,5.89721c8.20477,8.20481 10.25606,20.51198 5.64076,30.51155c10.76881,3.84605 18.46083,14.61473 18.46083,26.40911z" data-paper-data="{&quot;origPos&quot;:null}" fill="#b9b9b9" fill-rule="nonzero" stroke-width="1" stroke-linecap="butt" stroke-linejoin="miter"/><path d="M385.47447,316.45557h-34.35759l-68.71506,-69.22786c-0.76925,-1.7948 -1.02564,-4.3588 -1.02564,-6.41001c0,-8.97396 7.43561,-16.15322 16.40957,-16.15322c2.564,0 4.61521,0.51281 7.17921,1.53845c0,-15.12757 12.05077,-27.4347 27.1783,-27.4347c14.87118,0 26.66555,12.05082 26.66555,26.66555c9.9996,-3.84605 21.79403,-1.79481 29.74235,6.15361c8.20477,8.46121 10.25601,20.76834 5.64076,30.76799c10.76881,3.84605 18.46078,14.10194 18.46078,26.1528c0,15.12757 -12.30717,27.94755 -27.1783,27.94755z" data-paper-data="{&quot;origPos&quot;:null}" fill="#cbcbcb" fill-rule="nonzero" stroke-width="1" stroke-linecap="butt" stroke-linejoin="miter"/><path d="M217.67155,333.27654v-166.83777h213.37075v166.83777z" data-paper-data="{&quot;origPos&quot;:null}" fill="none" fill-rule="nonzero" stroke-width="0" stroke-linecap="butt" stroke-linejoin="miter"/><g fill="#a3a3a3" fill-rule="nonzero" stroke-width="1" stroke-linecap="butt" stroke-linejoin="miter"><path d="M351.46295,298.57129c-1.87696,0 -4.02205,-0.80446 -5.63082,-2.41323l-31.63997,-31.63997c-2.94946,-2.9495 -2.94946,-8.04409 0,-10.9936c2.94946,-2.9495 8.04409,-2.9495 10.9936,0l31.9081,31.63997c2.94946,2.9495 2.94946,8.04409 0,10.9936c-1.60882,1.60882 -3.48573,2.41323 -5.63082,2.41323z" data-paper-data="{&quot;origPos&quot;:null}"/><path d="M359.23882,258.88718c0,1.87696 -0.80446,4.02205 -2.41323,5.63082l-31.64001,31.64001c-2.94946,2.9495 -8.04409,2.9495 -10.99364,0c-2.94946,-2.9495 -2.94946,-8.04409 0,-10.9936l31.90815,-31.9081c2.94946,-2.9495 8.04409,-2.9495 10.9936,0c1.60882,1.60882 2.14509,3.75386 2.14509,5.63077z" data-paper-data="{&quot;origPos&quot;:null}"/></g><g fill="#ffffff" fill-rule="nonzero" stroke-width="1" stroke-linecap="butt" stroke-linejoin="miter"><path d="M351.46295,292.94038c-1.87696,0 -4.02205,-0.80446 -5.63082,-2.41323l-31.63997,-31.63997c-2.94946,-2.9495 -2.94946,-8.04409 0,-10.9936c2.94946,-2.9495 8.04409,-2.9495 10.9936,0l31.9081,31.90815c2.94946,2.9495 2.94946,8.04409 0,10.9936c-1.60882,1.34068 -3.48573,2.14509 -5.63082,2.14509z"/><path d="M359.23882,253.5245c0,1.87696 -0.80446,4.02205 -2.41323,5.63082l-31.64001,31.63997c-2.94946,2.9495 -8.04409,2.9495 -10.99364,0c-2.94946,-2.9495 -2.94946,-8.04409 0,-10.9936l31.90815,-31.90815c2.94946,-2.9495 8.04409,-2.9495 10.9936,0c1.60882,1.60882 2.14509,3.48577 2.14509,5.63082z"/></g><path d="M248.04327,46.00969v26.44048c0,2.38561 -2.12054,4.30735 -4.43988,4.30735c-2.38561,0 -4.37361,-1.92174 -4.37361,-4.30735v-1.25907c-0.53014,2.05427 -4.04228,5.63268 -9.8075,5.63268c-7.28936,0 -16.03658,-5.63268 -16.03658,-17.69326c0,-11.7955 8.81349,-17.62699 16.03658,-17.62699c4.70495,0 8.48216,2.51814 9.8075,5.63268v-1.12654c0,-2.31934 1.98801,-4.30735 4.37361,-4.30735c2.31934,0 4.43988,1.98801 4.43988,4.30735zM239.62738,59.13053c0,-7.48816 -4.90375,-10.2051 -8.61469,-10.2051c-4.37361,0 -8.94603,3.44588 -8.94603,10.2051c0,6.82549 4.57241,10.2051 8.94603,10.2051c3.71095,0 8.61469,-2.71694 8.61469,-10.2051z" fill="#ffffff" fill-rule="evenodd" stroke-width="1" stroke-linecap="round" stroke-linejoin="round"/><path d="M210.73475,57.47386c0,3.44588 -1.92174,4.63868 -5.43388,4.63868l-19.68126,-0.13253c0.7952,4.83748 4.63868,7.42189 9.47616,7.42189c2.38561,0 3.51214,-0.53014 5.50015,-1.3916c1.1928,-0.53014 2.12054,-1.06027 3.24708,-1.06027c1.85547,0 2.98201,1.32534 2.98201,2.98201c0,1.06027 -0.46387,2.25307 -2.12054,3.64468c-2.45187,1.72294 -5.76522,2.84948 -9.94003,2.84948c-8.81349,0 -18.15712,-5.43388 -18.15712,-17.49446c0,-11.92804 9.87376,-17.69326 17.42819,-17.69326c7.55442,0 16.69925,5.96402 16.69925,16.23538zM185.61961,56.01599h16.56672c-0.66267,-5.10255 -4.37361,-7.22309 -8.15083,-7.22309c-3.77721,0 -7.81949,2.12054 -8.41589,7.22309z" fill="#ffffff" fill-rule="evenodd" stroke-width="1" stroke-linecap="round" stroke-linejoin="round"/><path d="M440.34948,70.5947c0,0.33133 -0.06627,0.66267 -0.13253,0.994v2.25307c0,10.8015 -10.07257,14.24738 -17.09685,14.24738c-4.10855,0 -7.42189,-1.12654 -8.87976,-1.78921c-1.85547,-0.7952 -2.84948,-2.12054 -2.84948,-3.71095c0,-1.98801 1.59041,-3.44588 3.44588,-3.44588c0.3976,0 0.92774,0.06627 1.78921,0.33133c1.32534,0.33133 3.57841,1.12654 6.56042,1.12654c5.36762,0 8.34963,-2.84948 8.34963,-6.75922v-4.50615c-0.53014,2.05427 -4.04228,5.63268 -9.8075,5.63268c-7.28936,0 -16.03658,-5.63268 -16.03658,-17.69326c0,-11.7955 8.81349,-17.62699 16.03658,-17.62699c4.70495,0 8.48216,2.51814 9.8075,5.63268v-1.12654c0,-2.31934 1.98801,-4.30735 4.37361,-4.30735c2.31934,0 4.43988,1.98801 4.43988,4.30735zM431.93359,57.27506c0,-7.48816 -4.90375,-10.2051 -8.61469,-10.2051c-4.37361,0 -8.94603,3.44588 -8.94603,10.2051c0,6.82549 4.57241,10.2051 8.94603,10.2051c3.71095,0 8.61469,-2.71694 8.61469,-10.2051z" fill="#ffffff" fill-rule="evenodd" stroke-width="1" stroke-linecap="round" stroke-linejoin="round"/><path d="M461.22355,31.89485c0,-2.31934 2.05427,-4.30735 4.43988,-4.30735c2.31934,0 4.37361,1.98801 4.37361,4.30735c0,2.31934 -2.05427,4.30735 -4.37361,4.30735c-2.38561,0 -4.43988,-1.98801 -4.43988,-4.30735zM469.97078,45.28076v26.24168c0,2.45187 -1.98801,4.43988 -4.30735,4.43988c-2.38561,0 -4.37361,-1.98801 -4.37361,-4.43988v-26.24168c0,-2.38561 1.98801,-4.37361 4.37361,-4.37361c2.31934,0 4.30735,1.98801 4.30735,4.37361z" fill="#ffffff" fill-rule="evenodd" stroke-width="1" stroke-linecap="round" stroke-linejoin="round"/><path d="M168.39022,78.28166c-2.38561,0 -4.37361,-1.92174 -4.37361,-4.30735v-39.03119c0,-2.31934 1.98801,-4.30735 4.37361,-4.30735c2.31934,0 4.30735,1.98801 4.30735,4.30735v39.03119c0,2.38561 -1.98801,4.30735 -4.30735,4.30735z" fill="#ffffff" fill-rule="evenodd" stroke-width="1" stroke-linecap="round" stroke-linejoin="round"/><path d="M509.9297,56.08226v14.97631c0,2.38561 -1.98801,4.30735 -4.37361,4.30735c-2.31934,0 -4.30735,-1.92174 -4.30735,-4.30735v-14.97631c0,-5.96402 -3.11454,-8.41589 -7.02429,-8.41589c-5.96402,0 -7.95203,5.56642 -8.21709,7.42189v15.97032c0,2.38561 -1.98801,4.30735 -4.30735,4.30735c-2.38561,0 -4.37361,-1.92174 -4.37361,-4.30735v-26.30795c0,-2.38561 1.98801,-4.37361 4.37361,-4.37361c2.31934,0 4.30735,1.98801 4.30735,4.37361v3.31334c0.26507,-2.38561 4.17481,-7.81949 11.33164,-7.81949c6.69295,0 12.59071,4.37361 12.59071,15.83778z" fill="#ffffff" fill-rule="evenodd" stroke-width="1" stroke-linecap="round" stroke-linejoin="round"/><path d="M402.44483,57.87146c0,11.86177 -10.13883,17.62699 -17.69326,17.62699c-7.62069,0 -17.69326,-5.76522 -17.69326,-17.62699c0,-11.7955 10.07257,-17.69326 17.69326,-17.69326c7.55442,0 17.69326,5.89775 17.69326,17.69326zM375.67301,57.87146c0,6.36162 4.37361,10.07257 9.07856,10.07257c4.63868,0 9.07856,-3.71095 9.07856,-10.07257c0,-6.42789 -4.43988,-10.13883 -9.07856,-10.13883c-4.70495,0 -9.07856,3.71095 -9.07856,10.13883z" fill="#ffffff" fill-rule="evenodd" stroke-width="1" stroke-linecap="round" stroke-linejoin="round"/><path d="M276.86936,45.81089c0.3976,0.5964 1.06027,1.52414 1.06027,2.91574c0,2.12054 -1.45787,3.24708 -3.37961,3.24708c-1.25907,0 -2.51814,-0.46387 -3.64468,-1.85547c-1.32534,-1.52414 -2.84948,-2.25307 -4.77122,-2.25307c-2.58441,0 -4.10855,1.25907 -4.10855,3.11454c0,1.06027 0.3976,2.45187 3.44588,3.31334l4.04228,1.1928c5.30135,1.45787 9.74123,3.97601 9.74123,9.87376c0,7.28936 -6.75922,10.8015 -13.65098,10.8015c-5.96402,0 -9.54243,-2.51814 -11.3979,-4.77122c-0.33133,-0.46387 -1.78921,-2.12054 -1.78921,-4.17481c0,-1.45787 0.92774,-3.31334 3.31334,-3.31334c1.78921,0 2.78321,1.12654 3.57841,2.12054c1.92174,2.38561 4.04228,3.04828 6.29535,3.04828c3.24708,0 5.03628,-1.3916 5.03628,-3.24708c0,-1.12654 -0.72894,-2.58441 -3.90975,-3.51214l-3.77721,-1.12654c-6.69295,-1.85547 -9.47616,-5.43388 -9.47616,-10.13883c0,-6.62669 6.09655,-10.07257 12.39191,-10.07257c4.50615,0 8.81349,1.78921 11.0003,4.83748z" fill="#ffffff" fill-rule="evenodd" stroke-width="1" stroke-linecap="round" stroke-linejoin="round"/><path d="M360.74176,68.79755c1.65667,0 3.18081,1.3916 3.18081,3.18081c0,1.78921 -1.52414,3.18081 -3.18081,3.18081h-21.8018c-2.25307,0 -3.90975,-1.65667 -3.90975,-3.90975v-38.96492c0,-2.05427 1.59041,-3.71095 3.64468,-3.71095c1.92174,0 3.51214,1.65667 3.51214,3.71095v36.51305z" fill="#ffffff" fill-rule="evenodd" stroke-width="1" stroke-linecap="round" stroke-linejoin="round"/><path d="M160.88059,46.39934c0,8.68096 -6.56042,14.77751 -16.89805,14.77751h-8.87976v13.65098c0,1.98801 -1.59041,3.64468 -3.51214,3.64468c-2.05427,0 -3.64468,-1.65667 -3.64468,-3.64468v-39.22999c0,-2.25307 1.65667,-3.90975 3.90975,-3.90975h12.12684c10.33763,0 16.89805,6.36162 16.89805,14.71125zM153.92257,46.39934c0,-5.83149 -4.10855,-8.54843 -10.2051,-8.54843h-8.61469v17.16312h8.61469c6.09655,0 10.2051,-2.45187 10.2051,-8.61469z" fill="#ffffff" fill-rule="evenodd" stroke-width="1" stroke-linecap="round" stroke-linejoin="round"/><path d="M317.02683,56.41359c0,3.44588 -1.92174,4.63868 -5.43388,4.63868l-19.68126,-0.13253c0.7952,4.83748 4.63868,7.42189 9.47616,7.42189c2.38561,0 3.51214,-0.53014 5.50015,-1.3916c1.1928,-0.53014 2.12054,-1.06027 3.24708,-1.06027c1.85547,0 2.98201,1.32534 2.98201,2.98201c0,1.06027 -0.46387,2.25307 -2.12054,3.64468c-2.45187,1.72294 -5.76522,2.84948 -9.94003,2.84948c-8.81349,0 -18.15712,-5.43388 -18.15712,-17.49446c0,-11.92804 9.87376,-17.69326 17.42819,-17.69326c7.55442,0 16.69925,5.96402 16.69925,16.23538zM291.91168,54.95572h16.56672c-0.66267,-5.10255 -4.37361,-7.22309 -8.15083,-7.22309c-3.77721,0 -7.81949,2.12054 -8.41589,7.22309z" fill="#ffffff" fill-rule="evenodd" stroke-width="1" stroke-linecap="round" stroke-linejoin="round"/><path d="M361.53696,70.38795c1.65667,0 3.18081,1.3916 3.18081,3.18081c0,1.78921 -1.52414,3.18081 -3.18081,3.18081h-21.8018c-2.25307,0 -3.90975,-1.65667 -3.90975,-3.90975v-38.96492c0,-2.05427 1.59041,-3.71095 3.64468,-3.71095c1.92174,0 3.51214,1.65667 3.51214,3.71095v36.51305z" fill="#ffffff" fill-rule="evenodd" stroke-width="1" stroke-linecap="round" stroke-linejoin="round"/></g></g></svg>